<svg t="1678088786947" class="icon" viewBox="0 0 1024 1024" version="1.1" xmlns="http://www.w3.org/2000/svg" p-id="8829" width="200" height="200"><path d="M237.136842 474.273684C107.789474 474.273684 0 366.484211 0 237.136842S107.789474 0 237.136842 0s237.136842 107.789474 237.136842 237.136842-107.789474 237.136842-237.136842 237.136842z m0-366.48421C167.073684 107.789474 107.789474 167.073684 107.789474 237.136842s59.284211 129.347368 129.347368 129.347369 129.347368-59.284211 129.347369-129.347369S307.2 107.789474 237.136842 107.789474z m549.726316 366.48421c-129.347368 0-237.136842-107.789474-237.136842-237.136842s107.789474-237.136842 237.136842-237.136842C916.210526 0 1024 107.789474 1024 237.136842s-107.789474 237.136842-237.136842 237.136842z m0-366.48421c-70.063158 0-129.347368 59.284211-129.347369 129.347368s59.284211 129.347368 129.347369 129.347369S916.210526 307.2 916.210526 237.136842 856.926316 107.789474 786.863158 107.789474z m0 916.210526c-129.347368 0-237.136842-107.789474-237.136842-237.136842 0-129.347368 107.789474-237.136842 237.136842-237.136842 129.347368 0 237.136842 107.789474 237.136842 237.136842 0 129.347368-107.789474 237.136842-237.136842 237.136842z m0-366.484211c-70.063158 0-129.347368 59.284211-129.347369 129.347369s59.284211 129.347368 129.347369 129.347368 129.347368-59.284211 129.347368-129.347368-59.284211-129.347368-129.347368-129.347369zM237.136842 1024C107.789474 1024 0 916.210526 0 786.863158c0-129.347368 107.789474-237.136842 237.136842-237.136842s237.136842 107.789474 237.136842 237.136842c0 129.347368-107.789474 237.136842-237.136842 237.136842z m0-366.484211c-70.063158 0-129.347368 59.284211-129.347368 129.347369S167.073684 916.210526 237.136842 916.210526s129.347368-59.284211 129.347369-129.347368-59.284211-129.347368-129.347369-129.347369z" p-id="8830"></path></svg>