<svg t="1693988752841" class="icon" viewBox="0 0 1024 1024" version="1.1" xmlns="http://www.w3.org/2000/svg" p-id="4086" width="200" height="200"><path d="M782.848 728.576m-185.856 0a185.856 185.856 0 1 0 371.712 0 185.856 185.856 0 1 0-371.712 0Z" fill="#FFE200" p-id="4087"></path><path d="M194.56 166.4H128c-16.896 0-30.72-13.824-30.72-30.72s13.824-30.72 30.72-30.72h66.56c16.896 0 30.72 13.824 30.72 30.72s-13.824 30.72-30.72 30.72z" fill="#FFE200" p-id="4088"></path><path d="M525.824 337.92l-45.568 12.288c3.584 8.192 7.68 17.92 11.264 27.136H354.816v69.12h43.52v-27.136h224.768v27.136h46.08V377.344h-124.928c-4.096-10.752-11.776-27.136-18.432-39.424z m8.704 90.624h-45.568v30.72h-112.64v183.296h42.496v-16.896h70.144V686.08h45.568v-59.904h69.12v15.36h44.544V459.776h-113.664v-31.232z m0 95.744v-27.136h69.12v27.136h-69.12z m-115.712 0v-27.136h70.144v27.136H418.816z m115.712 63.488v-27.136h69.12v27.136h-69.12z m-115.712 0v-27.136h70.144v27.136H418.816zM301.056 856.576c-5.632 0-11.264-1.536-16.896-5.12-10.752-7.168-21.504-14.336-31.232-22.528-16.384-12.8-31.744-27.136-46.08-42.496-11.776-12.288-10.752-31.744 1.536-43.52s31.744-10.752 43.52 1.536c12.288 12.8 25.088 25.088 39.424 35.84 8.704 6.656 17.408 13.312 26.624 18.944 14.336 9.216 18.432 28.16 9.216 42.496-6.144 9.728-15.872 14.848-26.112 14.848zM507.904 917.504c-30.72 0-61.44-3.584-91.648-10.24-15.36-3.584-30.72-7.68-45.056-13.312-15.872-5.632-24.576-23.04-18.944-39.424 5.632-15.872 23.04-24.576 39.424-18.944 12.8 4.608 25.6 8.192 38.4 11.264 25.6 5.632 51.712 8.704 77.824 8.704 16.896 0 30.72 13.824 30.72 30.72s-13.824 31.232-30.72 31.232zM596.992 907.264c-13.824 0-26.624-9.728-29.696-23.552-4.096-16.384 6.144-33.28 22.528-36.864 20.48-4.608 39.936-11.776 59.392-19.968 45.568-19.968 87.04-50.176 120.32-87.552 57.344-64 88.576-146.944 88.576-232.96 0-51.2-10.752-100.864-32.256-146.944-7.168-15.36-0.512-33.792 14.848-40.96 15.36-7.168 33.792-0.512 40.96 14.848 25.088 54.272 37.888 112.64 37.888 173.056 0 101.376-36.864 198.656-104.448 273.92-38.912 43.52-88.064 79.36-141.312 102.912-22.528 9.728-46.08 17.92-69.632 23.552-2.56 0-4.608 0.512-7.168 0.512z" fill="#4E63DD" p-id="4089"></path><path d="M164.352 700.928c-11.264 0-22.528-6.656-27.648-17.408-26.624-55.808-39.936-115.2-39.936-177.152 0-67.072 16.384-133.632 47.616-192 43.008-81.408 113.152-146.944 197.632-184.32C394.24 107.008 450.56 95.232 508.416 95.232c79.872 0 156.672 23.04 223.232 66.048 32.256 20.992 61.44 46.08 87.04 75.264 11.264 12.8 9.728 32.256-3.072 43.52s-32.256 9.728-43.52-3.072c-21.504-24.576-46.592-46.592-74.24-64-56.832-36.864-122.368-55.808-189.952-55.808-49.152 0-96.768 10.24-141.312 29.696-71.68 31.744-131.584 87.552-168.448 156.672-26.624 50.176-40.448 106.496-40.448 163.328 0 52.736 11.264 103.424 33.792 150.528 7.168 15.36 1.024 33.792-14.336 40.96-4.096 1.536-8.192 2.56-12.8 2.56z" fill="#4E63DD" p-id="4090"></path></svg>