<svg class="icon" viewBox="0 0 1024 1024" xmlns="http://www.w3.org/2000/svg" width="200" height="200">
    <path d="M194.373818 270.615273v504.785454h528.523637v64.930909H237.847273c-58.786909 0-107.147636-45.288727-109.707637-102.772363l-0.093091-4.654546V270.615273h66.373819zM872.261818 170.682182c36.677818 0 66.420364 29.090909 66.420364 64.930909v429.800727c0 35.886545-29.742545 64.977455-66.420364 64.977455H310.551273c-36.677818 0-66.373818-29.090909-66.373818-64.977455V235.613091c0-35.84 29.696-64.930909 66.373818-64.930909H872.261818zM799.464727 316.043636c-114.408727 1.163636-193.908364 42.449455-233.146182 124.881455l-2.65309 5.771636-2.56 5.538909c-31.744 66.234182-91.415273 97.419636-185.437091 94.673455v64.977454l-7.633455-0.232727c122.693818 5.026909 209.454545-39.610182 253.672727-132.840727l2.839273-6.283636 2.466909-5.213091c27.461818-56.506182 83.316364-85.597091 172.450909-86.388364V316.043636z m-370.501818-13.684363a40.401455 40.401455 0 0 0-40.866909 40.029091c0 22.062545 18.292364 39.936 40.820364 39.936a40.448 40.448 0 0 0 40.866909-39.982546 40.448 40.448 0 0 0-40.866909-39.982545z"></path>
</svg>