<svg t="1693224445038" class="icon" viewBox="0 0 1024 1024" version="1.1" xmlns="http://www.w3.org/2000/svg" p-id="4976" width="200" height="200"><path d="M927.5 728.7c17.7 0 32-14.3 32-32s-14.3-32-32-32h-73.8l99.4-132.5c10.6-14.1 7.7-34.2-6.4-44.8-14.1-10.6-34.2-7.7-44.8 6.4L789.2 644.1 676.4 493.8c-10.6-14.1-30.7-17-44.8-6.4-14.1 10.6-17 30.7-6.4 44.8l99.4 132.5h-73.8c-17.7 0-32 14.3-32 32s14.3 32 32 32h106.3v60.6H650.8c-17.7 0-32 14.3-32 32s14.3 32 32 32h106.3V928c0 17.7 14.3 32 32 32s32-14.3 32-32v-74.6h106.3c17.7 0 32-14.3 32-32s-14.3-32-32-32H821.2v-60.6h106.3zM641.4 256c0-17.7-14.3-32-31.9-32H226.1c-17.6 0-31.9 14.3-31.9 32s14.3 32 31.9 32h383.4c17.6 0 31.9-14.3 31.9-32zM576.4 448c0-17.7-14.3-32-31.9-32H226.1c-17.6 0-31.9 14.3-31.9 32s14.3 32 31.9 32h318.4c17.6 0 31.9-14.3 31.9-32zM226.1 608c-17.6 0-31.9 14.3-31.9 32s14.3 32 31.9 32h191.7c17.6 0 31.9-14.3 31.9-32s-14.3-32-31.9-32H226.1z" p-id="4977"></path><path d="M544.8 832H160.2c-17.6 0-31.9-14.3-31.9-32V160c0-17.7 14.3-32 31.9-32h513.6c17.6 0 31.9 14.3 31.9 32v256c0 17.7 14.3 32 31.9 32 17.6 0 31.9-14.3 31.9-32V128c0-35.3-28.6-64-63.8-64H128.3c-35.2 0-63.8 28.7-63.8 64v704c0 35.3 28.6 64 63.8 64h416.5c17.6 0 31.9-14.3 31.9-32s-14.2-32-31.9-32z" p-id="4978"></path></svg>