<svg class="icon" viewBox="0 0 1024 1024" xmlns="http://www.w3.org/2000/svg" width="200" height="200">
    <path d="M211.968 272.298667a384 384 0 0 0 539.733333 539.733333L211.968 272.298667z m60.330667-60.330667l539.733333 539.733333a384 384 0 0 0-539.733333-539.733333zM512 981.333333C252.8 981.333333 42.666667 771.2 42.666667 512S252.8 42.666667 512 42.666667s469.333333 210.133333 469.333333 469.333333-210.133333 469.333333-469.333333 469.333333z"></path>
    <path d="M512 512a128 128 0 1 1 0-256 128 128 0 0 1 0 256z m213.333333 213.333333H298.666667a213.333333 213.333333 0 0 1 426.666666 0z"></path>
</svg>