<svg t="1668752644871" class="icon" viewBox="0 0 1024 1024" version="1.1" xmlns="http://www.w3.org/2000/svg" p-id="8306" width="32" height="32"><path d="M962.56 215.04V778.24a61.44 61.44 0 0 1-61.44 61.44H635.94496c-13.9264 0-27.48416 7.24992-38.37952 15.9744l-34.4064 27.50464a81.92 81.92 0 0 1-102.33856 0l-34.4064-27.50464c-10.87488-8.72448-24.41216-15.9744-38.35904-15.9744H122.88a61.44 61.44 0 0 1-61.44-61.44V215.04a30.72 30.72 0 0 1 61.44 0V737.28a40.96 40.96 0 0 0 40.96 40.96h245.76c13.312 0 26.2144 6.81984 36.864 14.78656l40.96 30.72a40.96 40.96 0 0 0 49.152 0l40.96-30.72c10.6496-7.9872 23.552-14.78656 36.864-14.78656h245.76a40.96 40.96 0 0 0 40.96-40.96V215.04a30.72 30.72 0 0 1 61.44 0zM540.95872 155.17696l14.47936-14.39744A61.60384 61.60384 0 0 1 598.89664 122.88H798.72a40.96 40.96 0 0 1 40.96 40.96v508.7232a40.96 40.96 0 0 1-40.96 40.96h-199.82336a61.6448 61.6448 0 0 0-43.45856 17.89952l-14.47936 14.39744a41.12384 41.12384 0 0 1-57.91744 0l-14.47936-14.39744a61.60384 61.60384 0 0 0-43.45856-17.89952H225.28a40.96 40.96 0 0 1-40.96-40.96V163.84a40.96 40.96 0 0 1 40.96-40.96h199.82336c16.30208 0 31.9488 6.43072 43.45856 17.89952l14.47936 14.39744a41.12384 41.12384 0 0 0 57.91744 0z" p-id="8307"></path></svg>