<svg class="icon" viewBox="0 0 1077 1024" version="1.1" xmlns="http://www.w3.org/2000/svg" width="200" height="200">
    <path d="M970.105263 0h-269.473684c-40.421053 0-121.263158 53.894737-161.684211 53.894737S417.684211 0 377.263158 0H107.789474a107.789474 107.789474 0 0 0-107.789474 107.789474v754.526315a107.789474 107.789474 0 0 0 107.789474 107.789474h269.473684c40.421053 0 121.263158 53.894737 161.68421 53.894737s121.802105-53.894737 161.684211-53.894737h269.473684a107.789474 107.789474 0 0 0 107.789474-107.789474V107.789474a107.789474 107.789474 0 0 0-107.789474-107.789474z m-431.157895 646.736842a53.894737 53.894737 0 0 0 53.894737-53.894737V152.522105a559.427368 559.427368 0 0 0 70.602106-26.947368 465.111579 465.111579 0 0 1 43.115789-17.785263H970.105263v754.526315h-269.473684a319.595789 319.595789 0 0 0-125.03579 36.109474c-11.317895 4.850526-26.947368 11.856842-37.726315 15.629474l-37.187369-15.629474A314.745263 314.745263 0 0 0 377.263158 862.315789H107.789474V107.789474h263.545263a465.111579 465.111579 0 0 1 43.115789 17.785263 559.427368 559.427368 0 0 0 70.602106 26.947368V592.842105a53.894737 53.894737 0 0 0 53.894736 53.894737z"></path>
    <path d="M377.263158 215.578947H215.578947a53.894737 53.894737 0 0 0 0 107.789474h161.684211a53.894737 53.894737 0 0 0 0-107.789474zM377.263158 431.157895H215.578947a53.894737 53.894737 0 0 0 0 107.789473h161.684211a53.894737 53.894737 0 0 0 0-107.789473zM377.263158 646.736842H215.578947a53.894737 53.894737 0 0 0 0 107.789474h161.684211a53.894737 53.894737 0 0 0 0-107.789474zM862.315789 215.578947h-161.68421a53.894737 53.894737 0 0 0 0 107.789474h161.68421a53.894737 53.894737 0 0 0 0-107.789474zM862.315789 431.157895h-161.68421a53.894737 53.894737 0 0 0 0 107.789473h161.68421a53.894737 53.894737 0 0 0 0-107.789473zM862.315789 646.736842h-161.68421a53.894737 53.894737 0 0 0 0 107.789474h161.68421a53.894737 53.894737 0 0 0 0-107.789474z"></path>
</svg>