<svg class="icon" viewBox="0 0 1024 1024" xmlns="http://www.w3.org/2000/svg" width="200" height="200">
    <path d="M512 102.4a409.6 409.6 0 1 0 409.6 409.6 409.6 409.6 0 0 0-409.6-409.6z m0 710.144a300.544 300.544 0 0 1 0-601.088h19.968a238.08 238.08 0 0 0-183.808 163.84V430.08a326.144 326.144 0 0 0 0 54.784c0 8.704 27.136 27.136 27.136 27.136l30.208-5.12a65.024 65.024 0 0 0 9.728 31.232c8.192 8.704-5.12 18.944-5.12 18.944a184.32 184.32 0 0 0-4.608 43.52 179.2 179.2 0 0 0 11.264 48.64 204.8 204.8 0 0 0 37.888 22.528s18.432 12.288 18.432 20.992a70.144 70.144 0 0 0 11.776 29.184c4.608 8.704 29.696 28.16 28.16 43.52s5.12 12.288 10.24 26.112a28.672 28.672 0 0 0 22.016 18.944c-11.264 1.024-22.016 2.048-33.28 2.048z m41.472-3.584c3.584-9.728 13.312-41.472 9.216-51.2s-13.312-27.648-13.312-27.648v-29.696a56.32 56.32 0 0 1 13.312-18.944 66.56 66.56 0 0 0 17.92-26.112 271.36 271.36 0 0 0 18.432-43.52c0-8.704 58.88-32.768 45.568-46.592a138.24 138.24 0 0 0-51.2-28.16c-11.264-3.584-71.68 0-75.264-15.36s-31.232-8.704-40.96-3.584-41.472 15.36-45.056 3.584 4.096-31.232 2.56-39.936c-3.072 13.824 0-8.704 0 0 3.072-11.264-14.336-20.992-25.088-13.312S399.36 460.8 409.6 456.192s29.184-31.232 32.256-22.528 25.088 3.584 31.744 0 16.384-7.168 19.968 10.24 32.768 36.352 32.768 29.696 6.656-31.232 0-41.984-9.728-18.944-9.728-18.944a38.912 38.912 0 0 0 33.792-18.944c22.016-51.2 43.008 5.12 34.304-41.984 2.56 15.36 36.864-37.888 20.48-45.056s0-40.448-40.448-44.032a90.624 90.624 0 0 0-57.856 9.216l3.072 12.288a15.872 15.872 0 0 1 2.048 12.8c0 6.656-23.552 5.12-23.552 5.12a36.864 36.864 0 0 1-3.072-17.408 153.6 153.6 0 0 1 6.656-19.456l13.312-18.944a51.2 51.2 0 0 1 14.848 3.584 61.44 61.44 0 0 0 28.16 0l-8.192-35.328a300.032 300.032 0 0 1 251.392 193.024 95.744 95.744 0 0 0-61.952 51.2c-27.648 54.784-81.92 0-81.92 0s81.92 136.704 136.192 81.92a325.632 325.632 0 0 0 27.136-30.208v3.072a300.032 300.032 0 0 1-257.536 295.424z"></path>
</svg>