<svg class="icon" viewBox="0 0 1024 1024" xmlns="http://www.w3.org/2000/svg" width="32" height="32">
    <path d="M512 928c-8.192 0-16.384-3.136-22.624-9.376l-96-96c-12.512-12.512-12.512-32.736 0-45.248s32.736-12.512 45.248 0L512 850.752l73.376-73.376C591.36 771.36 599.488 768 608 768l224 0c17.664 0 32-14.336 32-32L864 224c0-17.632-14.336-32-32-32L192 192C174.368 192 160 206.368 160 224l0 512c0 17.664 14.368 32 32 32l96 0c17.664 0 32 14.304 32 32s-14.336 32-32 32L192 832c-52.928 0-96-43.072-96-96L96 224c0-52.928 43.072-96 96-96l640 0c52.928 0 96 43.072 96 96l0 512c0 52.928-43.072 96-96 96l-210.752 0-86.624 86.624C528.384 924.864 520.192 928 512 928z"></path>
    <path d="M336 512C309.536 512 288 490.464 288 464S309.536 416 336 416s48 21.536 48 48S362.464 512 336 512z"></path>
    <path d="M528 512c-26.464 0-48-21.536-48-48s21.536-48 48-48 48 21.536 48 48S554.464 512 528 512z"></path>
    <path d="M720 512c-26.464 0-48-21.536-48-48s21.536-48 48-48 48 21.536 48 48S746.464 512 720 512z"></path>
</svg>