<svg class="icon" viewBox="0 0 1024 1024" version="1.1" xmlns="http://www.w3.org/2000/svg" width="200" height="200">
    <path d="M853.333333 170.666667a73.142857 73.142857 0 0 1 73.142857 73.142857v487.619047a73.142857 73.142857 0 0 1-73.142857 73.142858H473.526857l-167.594667 109.83619A24.380952 24.380952 0 0 1 268.190476 894.000762V804.571429H170.666667a73.142857 73.142857 0 0 1-73.142857-73.142858V243.809524a73.142857 73.142857 0 0 1 73.142857-73.142857h682.666666z m0 73.142857H170.666667v487.619047h170.666666v72.338286L451.705905 731.428571H853.333333V243.809524zM543.207619 487.619048v73.142857H341.333333v-73.142857h201.874286zM682.666667 341.333333v73.142857H341.333333v-73.142857h341.333334z"></path>
</svg>