<svg class="icon" viewBox="0 0 1024 1024" xmlns="http://www.w3.org/2000/svg" width="200" height="200">
    <path d="M808.1408 382.8224h-69.7856V304.896c0-122.8288-99.9424-222.7712-222.7712-222.7712S292.8128 182.0672 292.8128 304.896v77.8752H222.5152c-57.3952 0-104.0896 46.6944-104.0896 104.0896v357.632c0 57.3952 46.6944 104.0896 104.0896 104.0896h585.6256c57.3952 0 104.0896-46.6944 104.0896-104.0896V486.912c0-57.3952-46.6944-104.0896-104.0896-104.0896zM364.4928 304.896c0-83.3024 67.7888-151.0912 151.0912-151.0912s151.0912 67.7888 151.0912 151.0912v77.8752H364.4928V304.896z m476.0576 539.648c0 17.8688-14.5408 32.4096-32.4096 32.4096H222.5152c-17.8688 0-32.4096-14.5408-32.4096-32.4096V486.912c0-17.8688 14.5408-32.4096 32.4096-32.4096h585.6256c17.8688 0 32.4096 14.5408 32.4096 32.4096v357.632z"></path>
    <path d="M515.328 797.44c-72.6528 0-131.7376-59.0848-131.7376-131.7376 0-72.6528 59.0848-131.7376 131.7376-131.7376s131.7376 59.0848 131.7376 131.7376c0 72.6528-59.0848 131.7376-131.7376 131.7376z m0-191.7952c-33.1264 0-60.0576 26.9312-60.0576 60.0576 0 33.1264 26.9312 60.0576 60.0576 60.0576s60.0576-26.9312 60.0576-60.0576c0-33.1264-26.9312-60.0576-60.0576-60.0576z"></path>
</svg>