<svg class="icon" viewBox="0 0 1024 1024" version="1.1" xmlns="http://www.w3.org/2000/svg" width="200" height="200">
    <path d="M647.9616 162.56a115.968 115.968 0 0 1 103.5008 63.6416l1.3568 2.8416h72.2944l3.6864 0.128a69.248 69.248 0 0 1 64.9472 61.056l0.384 4.352 0.1024 3.7376-0.0768 7.936c-2.0224 148.3264-45.2608 232.3456-129.6896 245.2224l-2.7904 0.3328-1.1008 4.6592a252.1088 252.1088 0 0 1-192.7424 183.8848l-7.3984 1.4336-3.9936 0.6144v55.296H655.36c15.3856 0 28.2368 10.9568 31.232 25.472l0.4608 3.1488 0.1536 3.2512c0 16.512-12.544 30.08-28.5952 31.7184l-3.2512 0.1536H375.1424a31.872 31.872 0 0 1-3.2512-63.5648l3.2512-0.1536 117.5808-0.0256v-53.2992l-3.712-0.3328a251.9808 251.9808 0 0 1-214.1952-179.3792l-1.9456-7.0144-1.0752-4.2752-2.56-0.1024c-90.4192-6.3232-136.9344-87.808-139.3664-237.0816l-0.0768-9.216v-9.216a69.248 69.248 0 0 1 61.2096-68.2496l4.352-0.3584 3.6608-0.1024 80.8192-0.0256 1.3568-2.8416a115.968 115.968 0 0 1 91.9552-63.0784l5.632-0.4096 5.7088-0.1536H647.936z m-0.1024 63.744H384.5888a52.224 52.224 0 0 0-51.6608 45.2096l-0.3584 3.8912-0.0768 3.1744L332.8 534.6048l1.2032 5.0176a188.2368 188.2368 0 0 0 133.888 135.7824l6.8608 1.6896 5.3504 1.152a188.2624 188.2624 0 0 0 217.1904-131.9936l2.8416-10.7264V278.528a52.224 52.224 0 0 0-45.1072-51.7632l-3.8912-0.3584-3.328-0.1024z m-379.1104 66.4832H199.0144a5.504 5.504 0 0 0-5.504 5.4528c-0.8448 119.2192 23.5264 180.4544 72.32 190.2848l3.3024 0.5632-0.384-196.3008z m556.1856 0h-61.056v193.1008l2.6624-0.9216c39.7568-15.36 61.2352-70.7072 63.744-170.112l0.256-16.2304-0.128-1.3312a5.632 5.632 0 0 0-2.944-3.9936l-1.1264-0.384-1.408-0.128z"></path>
    <path d="M516.5568 330.7008a46.592 46.592 0 0 1 41.0624 23.808l1.7152 3.4816 9.9328 21.12 22.1696 3.1232a46.592 46.592 0 0 1 33.408 21.8112l2.0992 3.712 1.8432 3.9424 1.28 3.3024c5.632 16.384 2.048 34.3296-8.8064 46.6688l-19.3792 20.0704 4.1728 24.4224c1.92 14.0544-1.792 28.16-10.0608 38.3744l-2.9184 3.2512-2.944 2.688-2.3808 1.792a45.6704 45.6704 0 0 1-47.1552 6.0416l-3.8144-1.92-19.5584-10.5984-19.9168 10.8032a54.016 54.016 0 0 1-11.3152 4.4544l-3.7888 0.8192-3.8912 0.512-3.8912 0.1536c-9.7024 0-19.3536-3.2768-28.3392-9.5488-13.5424-10.5472-20.6592-26.88-18.8672-42.8544l0.64-3.9936 3.9936-23.7312-17.152-17.7664a49.92 49.92 0 0 1-13.6448-36.9664l0.384-4.6592 0.7168-4.2496 0.9216-3.7632c5.6832-16.512 18.3552-28.3392 34.4832-32l4.096-0.768 22.1696-3.1232 10.368-21.888a48.7168 48.7168 0 0 1 30.8992-25.0624l3.968-0.8448 4.096-0.512 3.4048-0.1024z m0.0768 45.0304l-0.768 0.2304-0.768 0.512-0.5632 0.6912-19.456 41.3184-2.9184 2.1504-44.2624 6.1952a2.2784 2.2784 0 0 0-1.8176 1.4848 5.5552 5.5552 0 0 0 0.3584 3.9936l0.7424 1.1008 31.5648 32.768 1.024 3.328-7.6544 44.8768c-0.1792 0.9472 0.1792 1.9456 0.6912 2.3808l1.3312 0.768 0.9984-0.2304 1.0496-0.512 39.1936-21.248h3.6608l39.4752 21.4016c0.6912 0.4096 0.8192 0.384 2.56-0.9472a5.632 5.632 0 0 0 0.4608-1.9968v-0.9984l-7.5264-44.1856 1.024-3.3024 31.6672-32.8704a2.688 2.688 0 0 0 0.768-2.9952c-0.512-1.536-1.024-2.304-1.6128-2.6112l-0.64-0.1792-44.2624-6.2208-2.9184-2.1504-19.6608-41.728c-0.2048-0.512-0.4864-0.768-0.9472-0.9216l-0.7936-0.1024z"></path>
</svg>