<svg t="1687325786500" class="icon" viewBox="0 0 1024 1024" version="1.1" xmlns="http://www.w3.org/2000/svg" p-id="5132" width="200" height="200"><path d="M511.989 360.013251c-0.44199-0.002 0.43999 0 0 0z m23.53346 1.441967l272.51374-313.506799C826.849768 22.882994 854.181141 6.415373 885.208428 1.503485c31.657273-5.009885 63.372544 2.60194 89.301949 21.445508 25.929404 18.839567 42.971013 46.650928 47.982898 78.308201 5.013885 31.657273-2.60394 63.374544-21.445508 89.303949L707.384512 528.837373c9.679778 61.288592-8.909795 126.2591-55.772719 173.396018-74.944279 75.378269-159.508336 85.77003-239.728493 85.77003-112.74141 0-202.45735-67.788443-206.223264-70.674377a40.003081 40.003081 0 0 1 9.58378-68.922417c58.200663-23.097469 72.206342-63.296546 89.939934-114.193377 13.279695-38.109125 28.329349-81.302133 64.734513-116.101334 39.231099-37.497139 89.767938-58.100666 142.072737-58.100665 7.535827 0.051999 16.137629 0.539988 23.53146 1.443967z m80.808144 28.977334a203.519325 203.519325 0 0 1 35.279189 28.393348l0.002 0.002a200.539394 200.539394 0 0 1 22.247489 26.617389l263.303953-303.093039a39.717088 39.717088 0 0 0 6.317854-28.583343 39.743087 39.743087 0 0 0-15.993632-26.103401 39.735087 39.735087 0 0 0-29.767317-7.147835 39.743087 39.743087 0 0 0-26.1054 15.993632z m-21.453508 84.798053c-22.375486-22.505483-51.602815-35.011196-82.296109-35.213192-31.951266-0.189996-62.926555 12.547712-87.387993 35.929175-22.477484 21.483507-32.66725 50.728835-44.464979 84.592057-13.92968 39.975082-30.287304 86.932003-72.086344 123.837156 27.88336 12.297718 64.176526 23.631457 103.241629 23.631457 74.814282 0 131.524979-10.399761 182.997796-62.172572 46.758926-47.03692 46.758926-123.569162-0.004-170.604081zM983.978159 348.013527c-22.091493 0-39.999081 17.907589-39.999081 39.999081v283.993477c2.111951 53.070781 77.904211 53.030782 79.998163 0v-283.993477c0-22.091493-17.907589-39.999081-39.999082-39.999081z m0 475.989067c-22.091493 0-39.999081 17.907589-39.999081 39.999081 0 44.110987-35.887176 79.998163-79.998163 79.998163H159.997085c-44.110987 0-79.998163-35.887176-79.998162-79.998163v-703.98383c0-44.110987 35.887176-79.998163 79.998162-79.998163h501.98847c53.070781-2.111951 53.030782-77.904211 0-79.998162H159.997085c-88.221974 0-159.996325 71.774351-159.996325 159.996325v703.98383c0 88.221974 71.774351 159.996325 159.996325 159.996325h703.98383c88.221974 0 159.996325-71.774351 159.996326-159.996325 0-22.091493-17.907589-39.999081-39.999082-39.999081z"></path></svg>