<svg class="icon" viewBox="0 0 1024 1024" version="1.1" xmlns="http://www.w3.org/2000/svg" width="200" height="200">
    <path d="M811.5 867.8h-680c-28.4 0-51.5-23.1-51.5-51.5V250.9c0-28.4 23.1-51.5 51.5-51.5h680c28.4 0 51.5 23.1 51.5 51.5v565.4c0 28.4-23.1 51.5-51.5 51.5z m-669-62.6h658V262h-658v543.2z"></path>
    <path d="M433.1 553.4L252.6 414.2c-13.7-10.5-16.2-30.2-5.7-43.8 10.5-13.7 30.2-16.2 43.9-5.7l153.9 118.7c4.4 3.4 10.6 3.4 15 0l155.1-118.9c13.7-10.5 33.3-7.9 43.8 5.8s7.9 33.3-5.8 43.8L471.2 553.5c-11.3 8.6-26.9 8.6-38.1-0.1z"></path>
    <path d="M584.3 583.4h118.2v41.7H584.3zM584.3 667.4h118.2v41.7H584.3z"></path>
</svg>