<svg t="1700641744168" class="icon" viewBox="0 0 1024 1024" version="1.1" xmlns="http://www.w3.org/2000/svg" p-id="6911" width="200" height="200"><path d="M508.544 66.88A448 448 0 0 0 60.992 514.432a448 448 0 0 0 447.552 447.552 448 448 0 0 0 447.552-447.552 448 448 0 0 0-447.552-447.552z m0 831.104a384 384 0 0 1-383.552-383.552 384 384 0 0 1 383.552-383.552 384 384 0 0 1 383.552 383.552 384 384 0 0 1-383.552 383.552z" p-id="6912"></path><path d="M367.488 404.48m-48 0a48 48 0 1 0 96 0 48 48 0 1 0-96 0Z" p-id="6913"></path><path d="M635.52 404.48m-48 0a48 48 0 1 0 96 0 48 48 0 1 0-96 0Z" p-id="6914"></path><path d="M669.248 613.056a31.936 31.936 0 0 0-44.16 9.664c-20.8 32.448-67.968 53.44-120.064 53.44-52.096 0-99.2-20.928-120-53.376a32 32 0 1 0-53.888 34.496c32.768 51.136 99.392 82.88 173.888 82.88 74.56 0 141.184-31.744 173.952-82.944a32 32 0 0 0-9.728-44.16z" p-id="6915"></path></svg>