<svg t="1668175228642" class="icon" viewBox="0 0 1024 1024" version="1.1" xmlns="http://www.w3.org/2000/svg" p-id="14036" width="200" height="200"><path d="M512 0c282.763636 0 512 229.236364 512 512s-229.236364 512-512 512S0 794.763636 0 512 229.236364 0 512 0z m0 93.090909a418.909091 418.909091 0 1 0 0 837.818182 418.909091 418.909091 0 0 0 0-837.818182z m263.354182 512a279.365818 279.365818 0 0 1-526.708364 0zM349.090909 335.127273a69.818182 69.818182 0 1 1 0 139.636363 69.818182 69.818182 0 0 1 0-139.636363z m325.818182 0a69.818182 69.818182 0 1 1 0 139.636363 69.818182 69.818182 0 0 1 0-139.636363z" p-id="14037"></path></svg>