<svg xmlns="http://www.w3.org/2000/svg" xmlns:xlink="http://www.w3.org/1999/xlink" viewBox="0 0 400 240"><defs><linearGradient id="g" x1="-674.76" x2="-674.76" y1="-2991.46" y2="-2991.96" gradientTransform="matrix(390 0 0 -196 263353 -586207.5)" gradientUnits="userSpaceOnUse"><stop offset="0" stop-color="#a8a8a8" stop-opacity=".15"/><stop offset="1" stop-color="#a8a8a8" stop-opacity="0"/></linearGradient><linearGradient id="d" x1="123" x2="194" y1="119.5" y2="119.5" gradientUnits="userSpaceOnUse"><stop offset="0" stop-color="#f2f2f2"/><stop offset=".13" stop-color="#ededed"/><stop offset=".59" stop-color="#e0e0e0"/><stop offset="1" stop-color="#dbdbdb"/></linearGradient><linearGradient id="a" x1="225.5" x2="225.5" y1="170" y2="63" gradientUnits="userSpaceOnUse"><stop offset="0" stop-color="#fafafa"/><stop offset="1" stop-color="#dbdbdb"/></linearGradient><linearGradient id="j" x1="123" x2="257" y1="68.5" y2="68.5" gradientUnits="userSpaceOnUse"><stop offset="0" stop-color="#c9c9c9"/><stop offset=".57" stop-color="#dadada"/><stop offset="1" stop-color="#ebebeb"/></linearGradient><linearGradient xlink:href="#a" id="k" x1="123" x2="218.86" y1="63"/><linearGradient xlink:href="#a" id="l" x1="204.49" x2="204.49" y1="88" y2="54.05"/><linearGradient id="b" x1="142.55" x2="226.6" y1="66.08" y2="66.08" gradientUnits="userSpaceOnUse"><stop offset="0" stop-color="#fafafa"/><stop offset="1" stop-color="#ececec"/></linearGradient><linearGradient xlink:href="#b" id="m" x1="142.55" x2="161.04" y1="82.49" y2="82.49"/><linearGradient id="n" x1="-694.55" x2="-694.58" y1="-3120.44" y2="-3121.15" gradientTransform="matrix(-17 0 0 -23 -11666 -71655)" gradientUnits="userSpaceOnUse"><stop offset="0" stop-color="#fff6ec"/><stop offset="1" stop-color="#fdead6"/></linearGradient><linearGradient id="o" x1="-693.58" x2="-693.58" y1="-3151.07" y2="-3151.89" gradientTransform="matrix(-18 0 0 -19 -12342 -59761)" gradientUnits="userSpaceOnUse"><stop offset="0" stop-color="#494b80"/><stop offset="1" stop-color="#272756"/></linearGradient><linearGradient id="p" x1="-683.18" x2="-683.18" y1="-3044.31" y2="-3045.11" gradientTransform="matrix(-46 0 0 -48 -31283 -145999.5)" gradientUnits="userSpaceOnUse"><stop offset="0" stop-color="#faa35e"/><stop offset="1" stop-color="#f66357"/></linearGradient><linearGradient id="q" x1="-682.78" x2="-682.78" y1="-3042.82" y2="-3043.64" gradientTransform="matrix(-48.98 0 0 -49 -33299.76 -148958.01)" gradientUnits="userSpaceOnUse"><stop offset="0" stop-color="#8caff7"/><stop offset="1" stop-color="#6a95f5"/></linearGradient><linearGradient id="c" x1="-692.52" x2="-692.96" y1="-3232.02" y2="-3231.86" gradientTransform="matrix(-19 0 0 -13 -13045 -41835.98)" gradientUnits="userSpaceOnUse"><stop offset="0" stop-color="#1f1f49"/><stop offset="1" stop-color="#424776"/></linearGradient><linearGradient xlink:href="#c" id="r" x1="-692.45" x2="-693.07" y1="-3231.86" y2="-3231.73" gradientTransform="matrix(-19 0 0 -13 -13038 -41828.98)"/><linearGradient xlink:href="#d" id="s" x1="151.92" x2="219.58" y1="65.75" y2="65.75"/><linearGradient id="e" x1="213.5" x2="213.5" y1="39" y2="21.82" gradientUnits="userSpaceOnUse"><stop offset="0" stop-color="#4b82fa" stop-opacity="0"/><stop offset="1" stop-color="#4b82fa" stop-opacity=".6"/></linearGradient><linearGradient xlink:href="#e" id="t" x1="227" x2="227" y1="40" y2="18"/><linearGradient xlink:href="#e" id="u" x1="235.5" x2="235.5" y1="45" y2="29"/><radialGradient id="f" cx="186.19" cy="17834.54" r="114.55" gradientTransform="matrix(1 0 0 .15 8.71 -2479.79)" gradientUnits="userSpaceOnUse"><stop offset="0" stop-color="#808083"/><stop offset=".07" stop-color="#9a9a9c"/><stop offset=".17" stop-color="#b9b9ba"/><stop offset=".28" stop-color="#d2d2d4"/><stop offset=".4" stop-color="#e6e6e7"/><stop offset=".53" stop-color="#f4f4f5"/><stop offset=".7" stop-color="#fdfdfd"/><stop offset=".99" stop-color="#fff"/></radialGradient><radialGradient id="h" cx="-509.96" cy="-2945.9" r="1.3" gradientTransform="matrix(0 21 22.62 0 66882.46 10879.55)" gradientUnits="userSpaceOnUse"><stop offset="0" stop-color="#fff"/><stop offset="1" stop-color="#c1c1c1"/></radialGradient><radialGradient id="i" cx="-464.23" cy="-2925.45" r=".94" gradientTransform="matrix(0 16 17.23 0 50697.21 7516.25)" gradientUnits="userSpaceOnUse"><stop offset="0" stop-color="#fff"/><stop offset="1" stop-color="#d7d7d7"/></radialGradient></defs><g data-name="图层 1" style="isolation:isolate"><ellipse cx="194" cy="167" rx="114" ry="17" style="opacity:.36;mix-blend-mode:multiply;fill:url(#f)"/><ellipse cx="198" cy="217.36" rx="195" ry="98" style="fill:url(#g)"/><circle cx="254.57" cy="174.43" r="14.43" style="opacity:.84;fill:url(#h);isolation:isolate"/><circle cx="285.5" cy="90.86" r="8" style="opacity:.66;fill:url(#i);isolation:isolate"/><path d="m123 69 71 19v82l-66-26-5-75z" style="fill:url(#d)"/><path d="m257 63-63 25v82l61-28 2-79z" style="fill:url(#a)"/><path d="m195 49-72 20 71 19 63-25-62-14z" style="fill:url(#j)"/><path d="m123 69 29 8 66.86-22.95L195 49l-72 20z" style="fill:url(#k)"/><path d="m152 77 42 11 62.98-25.01-38.12-8.94L152 77z" style="fill:url(#l)"/><path d="m161 79.31 65.6-23.46-13.17-3.01-70.88 21.39L161 79.31z" style="fill:url(#b)"/><path d="M142.55 74.23a3 3 0 0 1 0 .44l.08 1.18.12 1.66.13 1.91.13 1.92.12 1.68.08 1.21a.93.93 0 0 0 1.11.91.67.67 0 0 0 .23-.1 1.3 1.3 0 0 0 .19-.22 1.1 1.1 0 0 1 .8-.39 1.16 1.16 0 0 1 .83.33c.34.33.45.86.81 1.17a1.24 1.24 0 0 0 1.3.2c.42-.2.49-.75 1-.81a.92.92 0 0 1 .78.36 2.88 2.88 0 0 1 .43.79 4.15 4.15 0 0 0 .42.81 1.36 1.36 0 0 0 .73.52 1.19 1.19 0 0 0 1.4-.71.76.76 0 0 1 .69-.53.8.8 0 0 1 .66.29 1.68 1.68 0 0 1 .21.37c.13.28.27.55.41.82a3 3 0 0 0 1 1.24c.21.11.52.16.67 0a1.07 1.07 0 0 0 .1-.22 2.56 2.56 0 0 1 .55-1 .69.69 0 0 1 .18-.16.85.85 0 0 1 .32 0 1.15 1.15 0 0 1 .69.15.92.92 0 0 1 .22.26 4.74 4.74 0 0 1 .48.92 7.22 7.22 0 0 0 .43 1c.19.28.88.89 1 .31a5.23 5.23 0 0 0 0-1.25v-9.98Z" style="fill:url(#m)"/><path d="m148.12 122.1-2.73-8.51-6-.87q-1.65-.68-3 2.16c-1.39 2.83-1.27 9.67-1.29 10.4s0 1.06 1 1.45c.34.12 2.68-.23 3.28.23.43.32.58 1.2.48 2.64a7.19 7.19 0 0 0 3.81 1.78 5.46 5.46 0 0 0 3.15-1.26l-1.43-3.9Z" style="fill:url(#n);fill-rule:evenodd"/><path d="M149.51 113.91a6.7 6.7 0 0 0-4.56-4.28 12.19 12.19 0 0 0-6 0c-1.58.41-2.24.22-3.28 1.91a4.12 4.12 0 0 0-.48 3.14 11.5 11.5 0 0 1 5-1.2 7 7 0 0 1 3.9 2.09c.83.82 1.36 2 1.54 4.42a1.89 1.89 0 0 1 1.12.45 1.32 1.32 0 0 1 .27 1.16 22.06 22.06 0 0 1-2.28 3.2q2.2.39 3.69-2.49a13.43 13.43 0 0 0 1.08-8.4Z" style="fill:url(#o);fill-rule:evenodd"/><path d="M146.75 127.29q.85 3.26-2 3.25t-6.75-3.25a11.93 11.93 0 0 0-5.09 1.09 23.16 23.16 0 0 0-4.65 4.35l-3.86 4.15c2.08.72 3.37 1.21 3.86 1.46a4.22 4.22 0 0 1 1.5 2l24.52 24.14 3.41 2 4.28-2.81q-.28-11.9-.77-17.86c-.49-6-1.13-9.13-2.71-12.27s-5.2-4.42-7-5.17a17.74 17.74 0 0 0-4.74-1.08Z" style="fill:url(#p);fill-rule:evenodd"/><path d="M162 163.75c-4.44 1.21-6.81 1.57-7.08.65s-.6-5-1-12.25q1.28-2 0-3.45t-6.59-1.87q-2.36-3.14-4.31-3.49t-4.26 1.93q-1.87-5.36-7.67-4.87c-5.65.47-7.47 21.66-7.69 22.58a64.24 64.24 0 0 0-1.4 11.08c0 1.87 6.28-.41 6 1q-.6 3.23 5 5.31l5.8-7.06c2.13.49 4.53 1.08 7.19 1.75a17.07 17.07 0 0 0 10 0c2.85-.94 3.46-2.13 4.44-4.78a36.57 36.57 0 0 0 1.57-6.53Z" style="fill:url(#q);fill-rule:evenodd"/><path d="M148.93 146.6s-3.1 8.34-5.61 9.45c-2.76 1.22-5.08-1-6.37-1.3a11.11 11.11 0 0 1-3.32-1.95c-1.36-1.13-1.92-3-2.79-3s.41 2.5 0 2.5-5.07-2.78-5.07-4.38 5.43-6.86 5.34-7.26-2.68-3.85-4.52-3.5-3.75 4-4.61 5.33c-1.93 3-3.26 6.6-2.45 8.23 1.82 3.63 19.45 9.81 21.77 10.68s3.23 1.32 5.33.43 4.82-5.49 6.42-7.42a6.18 6.18 0 0 0 1.6-3.94c0-2.2-1-2.61-1.63-3s-2.02-.61-4.09-.87Z" style="fill:#fbdbbe;fill-rule:evenodd"/><path d="M127.38 174.58c-.43-.42-1.79-.94-4.07-1.55a6.65 6.65 0 0 0-2.61 1.55c-1.39 1.24-2.71 3.16-4 4.39a13.46 13.46 0 0 1-3.65 2.25 5 5 0 0 0 6.16 2.1q3.86-1.2 9.36-6.07a6 6 0 0 0-1.19-2.67Z" style="fill:url(#c);fill-rule:evenodd"/><path d="M133.09 180.3c-.43-.42-1.78-.94-4.06-1.56a6.81 6.81 0 0 0-2.61 1.56c-1.39 1.24-2.72 3.16-4.06 4.39a13.64 13.64 0 0 1-3.64 2.24 5 5 0 0 0 6.16 2.11q3.84-1.2 9.35-6.07a6 6 0 0 0-1.14-2.67Z" style="fill:url(#r);fill-rule:evenodd"/><path d="m152 77 67.5-22.5" style="fill:none;stroke-miterlimit:10;stroke-width:.5px;opacity:.53;stroke:url(#s)"/><path d="M213.91 39H218l-1.64-17.18-7.36 2.45L213.91 39z" style="fill:url(#e)"/><path d="m221 39 3-21 9 2-8 20-4-1z" style="fill:url(#t)"/><path d="m228 42 3 3 12-13-5-3-10 13z" style="fill:url(#u)"/></g></svg>