<svg class="icon" viewBox="0 0 1024 1024" version="1.1" xmlns="http://www.w3.org/2000/svg" width="200" height="200">
    <path d="M1024 512.0512l-301.6704-112.128 84.1216-182.272-182.9376 84.1728L511.8976 0l-112.128 301.6704L217.6 217.5488l84.1216 182.9376L0 512.1024l301.568 112.128-84.1728 182.2208 182.9376-84.1216L512.512 1024l112.128-301.6704 182.272 84.1216-84.1216-182.272L1024 512.1024z m-936.0896 1.28l232.96-71.0656 45.2608-14.0288 120.576 84.1216-398.848 0.9728z m424.0384 417.4336L442.6752 702.976l-15.4112-50.432 84.1216-120.4224 0.512 398.6432z m0-837.4272l69.376 227.6864 15.4112 50.5856-84.1216 120.576L512 93.3376z m145.7664 502.272L537.2928 511.488h398.6944l-232.8576 70.144-45.4144 13.9776z"></path>
</svg>