<svg class="icon" viewBox="0 0 1068 1024" version="1.1" xmlns="http://www.w3.org/2000/svg" width="200" height="200">
    <path d="M845.913043 0a133.565217 133.565217 0 0 1 133.342609 125.729391L979.478261 133.565217v267.130435a44.521739 44.521739 0 0 1-88.731826 5.209044L890.434783 400.695652V133.565217a44.521739 44.521739 0 0 0-39.312696-44.210087L845.913043 89.043478H133.565217a44.521739 44.521739 0 0 0-44.210087 39.312696L89.043478 133.565217v756.869566a44.521739 44.521739 0 0 0 39.312696 44.210087L133.565217 934.956522h311.652174a44.521739 44.521739 0 0 1 5.209044 88.731826L445.217391 1024H133.565217a133.565217 133.565217 0 0 1-133.342608-125.729391L0 890.434783V133.565217A133.565217 133.565217 0 0 1 125.729391 0.222609L133.565217 0h712.347826z m207.026087 589.467826a44.521739 44.521739 0 0 1 8.236522 58.323478l-3.383652 4.452174-267.130435 311.652174a44.521739 44.521739 0 0 1-60.505043 6.678261l-178.086957-133.565217a44.521739 44.521739 0 0 1 48.751305-74.306783l4.674782 3.072 144.695652 108.499478 239.972174-279.952695a44.521739 44.521739 0 0 1 62.775652-4.808348zM489.73913 534.26087a44.521739 44.521739 0 0 1 0 89.043478H267.130435a44.521739 44.521739 0 0 1 0-89.043478h222.608695z m222.608696-222.608696a44.521739 44.521739 0 0 1 0 89.043478H267.130435a44.521739 44.521739 0 1 1 0-89.043478h445.217391z"></path>
</svg>