<svg class="icon" viewBox="0 0 1024 1024" version="1.1" xmlns="http://www.w3.org/2000/svg" width="32" height="32">
    <path d="M832.038608 64.662657H192.030028C121.255125 64.662657 63.940169 121.98845 63.940169 192.694717v446.793671C63.940169 710.205493 121.255125 767.643272 192.030028 767.643272h133.353183a63.940169 63.940169 0 0 1 55.219742 31.576328l76.099638 129.83828c12.358154 21.093031 33.790754 31.626903 55.216129 31.626903s42.832688-10.544709 55.198067-31.619678l76.222461-129.870792a63.940169 63.940169 0 0 1 55.212517-31.551041h133.54103c70.576219 0 127.732228-57.289669 127.732227-127.800865V192.391272C959.825022 121.85479 902.643727 64.662657 832.038608 64.662657zM895.884854 639.842407A63.85347 63.85347 0 0 1 832.092795 703.703103h-133.54103a127.753903 127.753903 0 0 0-110.349172 63.09847l-76.222461 129.856342a0.274545 0.274545 0 0 1 0-0.050574h-0.032512s-0.021675 0.061411-0.032512 0.061412l-76.1466-129.85273A127.804477 127.804477 0 0 0 325.383211 703.703103H192.030028A64.207489 64.207489 0 0 1 127.880338 639.488388V192.694717A64.102729 64.102729 0 0 1 192.030028 128.602826h640.00858A63.799284 63.799284 0 0 1 895.884854 192.391272v447.451135z"></path>
    <path d="M608.154093 288.092004A31.970084 31.970084 0 0 0 576.184009 320.062089v160.078006l-134.650049-179.278119A31.970084 31.970084 0 0 0 384.002258 320.062089v255.760676a31.970084 31.970084 0 0 0 63.940169 0v-159.958796l134.650048 179.274507a31.970084 31.970084 0 0 0 57.531703-19.200113V320.062089a31.970084 31.970084 0 0 0-31.970085-31.970085z"></path>
</svg>