<svg class="icon" viewBox="0 0 1024 1024" version="1.1" xmlns="http://www.w3.org/2000/svg" width="200" height="200">
    <path d="M190.8736 146.1248a109.056 101.3248 90 1 0 202.6496 0 109.056 101.3248 90 1 0-202.6496 0Z"></path>
    <path d="M423.0144 137.5744a87.3984 81.2032 90 1 0 162.4064 0 87.3984 81.2032 90 1 0-162.4064 0Z"></path>
    <path d="M614.144 187.0848a72.704 67.584 90 1 0 135.168 0 72.704 67.584 90 1 0-135.168 0Z"></path>
    <path d="M773.7344 276.0192a56.4736 52.48 90 1 0 104.96 0 56.4736 52.48 90 1 0-104.96 0Z"></path>
    <path d="M798.1568 414.1056C755.6096 314.88 693.6064 300.2368 660.1728 291.84c-44.1344-11.3152-202.3936-23.1936-348.16 8.448C256.9728 311.7056 166.4 390.2976 261.12 502.272c29.1328 31.2832 105.1136 102.0928 40.96 244.1728s16.1792 245.76 171.4176 242.4832 236.6464-116.0192 269.0048-203.008 98.2528-272.64 55.6544-371.8144zM701.44 667.6992a35.84 35.84 0 0 1-32.5632 21.9648 34.0992 34.0992 0 0 1-15.6672-3.8912 40.192 40.192 0 0 1-16.7936-51.9168c45.7216-101.7856 10.24-173.4656 8.6528-176.4352A40.3456 40.3456 0 0 1 658.2272 404.48a34.9696 34.9696 0 0 1 49.4592 14.3872c2.304 4.352 56.6784 108.4928-6.2464 248.832z"></path>
</svg>