<svg class="icon" viewBox="0 0 1024 1024" version="1.1" xmlns="http://www.w3.org/2000/svg" width="200" height="200">
    <path d="M867.726306 781.403776 761.162268 674.865321c30.658254-46.834678 48.649-102.70822 48.649-162.865321 0-164.462702-133.350101-297.803593-297.81178-297.803593-60.148915 0-116.022457 17.981537-162.856112 48.649L242.559896 156.273183c74.964342-56.851822 168.108742-90.982154 269.439592-90.982154 246.701728 0 446.708971 199.980637 446.708971 446.708971C958.70846 613.329826 924.578128 706.46604 867.726306 781.403776L867.726306 781.403776zM660.89668 549.228903l0 74.447573L549.237601 623.676475l0 111.678522-74.457806 0L474.779795 623.676475 363.102297 623.676475l0-74.447573 111.677499 0 0-37.228903L363.102297 512l0-74.457806 37.219693 0-37.219693-74.448596 74.439386 0 37.238113 74.448596 74.457806 0 37.219693-74.448596 74.439386 0-37.219693 74.448596 37.219693 0 0 74.457806L549.237601 512l0 37.228903L660.89668 549.228903 660.89668 549.228903zM214.187709 512c0 164.470889 133.350101 297.81178 297.81178 297.81178 50.219775 0 97.491405-12.555967 139.003867-34.516118l108.501156 108.476597c-70.862931 47.279816-155.930375 74.936713-247.505024 74.936713-246.684332 0-446.708971-200.016453-446.708971-446.708971 0-91.574648 27.656897-176.632883 74.945923-247.51321l108.466364 108.509343C226.733443 414.509618 214.187709 461.780225 214.187709 512L214.187709 512zM214.187709 512"></path>
</svg>