<svg class="icon" viewBox="0 0 1024 1024" xmlns="http://www.w3.org/2000/svg" p-id="10204" width="200" height="200">
    <path d="M85.333333 85.333333m85.333334 0l213.333333 0q85.333333 0 85.333333 85.333334l0 213.333333q0 85.333333-85.333333 85.333333l-213.333333 0q-85.333333 0-85.333334-85.333333l0-213.333333q0-85.333333 85.333334-85.333334Z"></path>
    <path d="M85.333333 554.666667m85.333334 0l213.333333 0q85.333333 0 85.333333 85.333333l0 213.333333q0 85.333333-85.333333 85.333334l-213.333333 0q-85.333333 0-85.333334-85.333334l0-213.333333q0-85.333333 85.333334-85.333333Z"></path>
    <path d="M554.666667 85.333333m85.333333 0l213.333333 0q85.333333 0 85.333334 85.333334l0 213.333333q0 85.333333-85.333334 85.333333l-213.333333 0q-85.333333 0-85.333333-85.333333l0-213.333333q0-85.333333 85.333333-85.333334Z"></path>
    <path d="M512 725.333333c0-117.76 95.658667-213.333333 213.333333-213.333333 117.76 0 213.333333 95.658667 213.333334 213.333333 0 117.76-95.658667 213.333333-213.333334 213.333334-117.76 0-213.333333-95.658667-213.333333-213.333334z m85.333333 0c0 70.570667 57.386667 128 128 128 70.570667 0 128-57.386667 128-128 0-70.570667-57.386667-128-128-128-70.570667 0-128 57.386667-128 128z"></path>
    <path d="M823.168 883.498667l85.333333 85.333333a42.666667 42.666667 0 0 0 60.330667-60.330667l-85.333333-85.333333a42.666667 42.666667 0 0 0-60.330667 60.330667z"></path>
</svg>