<svg t="1668651427361" class="icon" viewBox="0 0 1024 1024" version="1.1" xmlns="http://www.w3.org/2000/svg" p-id="36495" width="200" height="200"><path d="M512 64C264.6 64 64 264.6 64 512s200.6 448 448 448 448-200.6 448-448S759.4 64 512 64z m84 343.1l-87 301.4c-4.8 17.2-7.2 28.6-7.2 33.9 0 3.1 1.3 6 3.8 8.7s5.2 4 8.1 4c4.8 0 9.6-2.1 14.4-6.4 12.7-10.5 28-29.4 45.8-56.8l14.4 8.5c-42.7 74.4-88 111.6-136.1 111.6-18.4 0-33-5.2-43.9-15.5-10.9-10.3-16.3-23.4-16.3-39.2 0-10.5 2.4-23.7 7.2-39.9l58.9-202.7c5.7-19.5 8.5-34.2 8.5-44.1 0-6.2-2.7-11.7-8.1-16.5-5.4-4.8-12.7-7.2-22-7.2-4.2 0-9.3 0.1-15.3 0.4l5.5-17L570.4 407H596v0.1z m17.8-88.7c-12.2 12.2-26.9 18.2-44.1 18.2-17 0-31.5-6.1-43.7-18.2-12.2-12.2-18.2-26.9-18.2-44.1s6-31.9 18-44.1c12-12.1 26.6-18.2 43.9-18.2 17.5 0 32.3 6.1 44.3 18.2 12 12.2 18 26.9 18 44.1s-6.1 31.9-18.2 44.1z" p-id="36496"></path></svg>