<svg t="1669539064659" class="icon" viewBox="0 0 1024 1024" version="1.1" xmlns="http://www.w3.org/2000/svg" p-id="2844" width="32" height="32"><path d="M922.42944 338.61632c-22.44096-53.0432-54.54848-100.67456-95.4624-141.58336-40.89856-40.89856-88.54016-73.02656-141.57824-95.4624C630.47168 78.34112 572.12928 66.56 512 66.56c-60.11904 0-118.4512 11.78112-173.37856 35.01056-53.03296 22.43584-100.67968 54.55872-141.58336 95.45728-40.9088 40.9088-73.02656 88.54528-95.4624 141.58336C78.35136 393.53344 66.56 451.87584 66.56 512s11.79136 118.46144 35.01568 173.37856c22.43584 53.0432 54.5536 100.67968 95.46752 141.58336 40.89856 40.90368 88.53504 73.02656 141.57824 95.4624C393.53856 945.65376 451.87584 957.44 512 957.44c60.1344 0 118.46144-11.78624 173.39392-35.01568 53.03808-22.43584 100.67968-54.5536 141.57824-95.4624 40.9088-40.90368 73.02144-88.54016 95.4624-141.58336C945.65888 630.46144 957.44 572.12416 957.44 512s-11.78112-118.46656-35.01056-173.38368z m-57.10848 322.63168c-19.30752 45.65504-46.97088 86.66624-82.18112 121.88672a382.43328 382.43328 0 0 1-121.8816 82.18112c-47.26784 19.98848-97.48992 30.12608-149.26336 30.12608-51.76832 0-101.98016-10.13248-149.248-30.12608-45.66016-19.31264-86.66112-46.96064-121.87648-82.18112a382.3104 382.3104 0 0 1-82.18112-121.88672c-19.9936-47.26784-30.1312-97.47968-30.1312-149.248s10.13248-101.98528 30.1312-149.248a382.17216 382.17216 0 0 1 82.18112-121.88672 382.26944 382.26944 0 0 1 121.87648-82.18112c47.26784-19.98848 97.47968-30.1312 149.248-30.1312 51.77344 0 101.98016 10.1376 149.25312 30.1312 45.66016 19.31264 86.66112 46.96064 121.8816 82.18112a382.17216 382.17216 0 0 1 82.18112 121.88672c19.99872 47.26272 30.1312 97.47968 30.1312 149.248s-10.13248 101.98016-30.12096 149.248z" fill="#00afec" p-id="2845"></path><path d="M549.77024 580.46976c-2.56 27.95008-20.33152 41.0112-37.87264 41.0112-13.0304 0 0 0 0 0-16.66048-3.13856-29.59872-10.24512-35.28192-38.51264l-22.92224-264.25856c0-26.56256 32.29184-50.06848 59.68896-50.06848 27.40224 0 56.91392 24.58112 56.91392 51.0976l-20.52608 260.73088zM512 656.0512c-27.40224 0-49.6384 22.21056-49.6384 49.6384 0 27.43296 22.21056 49.67424 49.6384 49.67424 27.42272 0 49.64352-22.24128 49.64352-49.67424-0.00512-27.392-22.22592-49.6384-49.64352-49.6384z" fill="#00afec" p-id="2846"></path></svg>