<svg t="1668598777884" class="icon" viewBox="0 0 1024 1024" version="1.1" xmlns="http://www.w3.org/2000/svg" p-id="4948" width="32" height="32"><path d="M583.9 897.7H327c-63.7 0-115.4-49.9-115.4-111.3V360.8c0-25.5 20.7-46.2 46.2-46.2s46.2 20.7 46.2 46.2v425.5c0 10.3 10.6 19 23.1 19H584c74.8 0 135.7-56 135.7-124.9V360.8c0-25.5 20.7-46.2 46.2-46.2s46.2 20.7 46.2 46.2v319.6c-0.2 119.8-102.5 217.3-228.2 217.3z" fill="#00EFEF" p-id="4949"></path><path d="M960.2 402.5c0 8.8-2.1 17.7-6.6 25.9-14.3 26.4-47.6 36.2-74 21.9L512 239 143.8 450.6c-26.4 14.3-59.7 4.5-74-21.9-4.4-8.2-6.6-17.1-6.6-25.9 0-19.4 10.4-38.2 28.5-48.1l392.9-224.9c6.7-3.6 13.8-5.7 20.9-6.3 0.5-0.1 1.2-0.2 1.8-0.2 10.6-1.2 21.5 0.7 31.6 6.2l392.9 225c18.1 9.7 28.4 28.5 28.4 48z" fill="#52A9FF" p-id="4950"></path></svg>