<svg t="1683621556685" class="icon" viewBox="0 0 1024 1024" version="1.1" xmlns="http://www.w3.org/2000/svg" p-id="6013" width="200" height="200"><path d="M931.84 880.64H92.16l-40.96-40.96V184.32l40.96-40.96h839.68l40.96 40.96v655.36l-40.96 40.96z m-798.72-81.92h757.76V225.28H133.12v573.44z" p-id="6014"></path><path d="M505.856 723.968L381.952 596.992 275.456 706.56l-44.032-43.008L359.424 532.48l44.032-1.024 146.432 148.48z" p-id="6015"></path><path d="M749.568 704.512L569.344 537.6l-117.76 122.88-45.056-43.008 139.264-144.384 43.008-1.024 202.752 186.368z" p-id="6016"></path><path d="M330.752 373.76m-51.2 0a51.2 51.2 0 1 0 102.4 0 51.2 51.2 0 1 0-102.4 0Z" p-id="6017"></path></svg>