<svg t="1693213301860" class="icon" viewBox="0 0 1024 1024" version="1.1" xmlns="http://www.w3.org/2000/svg" p-id="12382" width="200" height="200"><path d="M512 0c282.752 0 512 229.248 512 512S794.752 1024 512 1024 0 794.752 0 512 229.248 0 512 0z" fill="#FC7F2C" p-id="12383"></path><path d="M820.992 518.784zM519.808 207.232c-165.888 0-300.416 134.528-300.416 300.416 0 3.456 0.384 6.912 0.896 10.24-0.128 50.816 12.544 102.016 39.04 148.736a94.5664 94.5664 0 0 1 47.616-13.184h20.608c40.576 0 119.296 32.64 132.096 38.016h152.576c13.824 0 27.008 5.76 36.48 15.744 9.088 9.728 13.952 22.528 13.568 35.84-0.384 6.784-2.048 13.44-4.992 19.456l61.952-18.816a299.0336 299.0336 0 0 0 101.76-224.896c0-8.448-0.512-16.896-1.152-25.344-7.424-159.232-138.88-286.208-300.032-286.208z" fill="#FFFFFF" p-id="12384"></path><path d="M385.28 453.888c0.512-3.712 2.176-6.912 4.864-9.344 2.688-2.432 5.76-3.712 9.216-3.712h16.64L397.312 573.44c-1.536 9.088-5.376 16.384-11.648 22.144-6.272 5.76-13.44 8.576-21.632 8.576l21.248-150.272z m89.856-45.568h38.656l-1.536 11.008c-0.512 2.688-1.664 4.992-3.456 6.656s-3.968 2.56-6.528 2.56H472.32l-21.504 165.12c-0.512 3.072-1.792 5.632-3.968 7.552-2.176 1.92-4.608 2.944-7.296 2.944h-38.4l23.04-175.616h-38.656l1.536-11.776c0.384-2.56 1.408-4.608 3.072-6.144s3.712-2.304 6.144-2.304h30.464l3.072-24.32H392.96c1.024-6.016 3.584-10.88 7.68-14.72 4.096-3.84 8.832-5.76 14.336-5.76h102.4l-1.28 11.008c-0.512 2.688-1.664 4.992-3.584 6.784-1.792 1.792-4.096 2.688-6.656 2.688h-27.648l-3.072 24.32z m22.784 32.512c2.176 0 3.968 0.768 5.248 2.432 1.28 1.664 1.792 3.584 1.664 6.016L486.4 604.16c-7.68 0-13.952-3.072-18.944-9.088-4.992-6.016-7.04-13.312-6.144-21.632l15.616-132.608h20.992z m21.504 74.24c1.92-4.736 4.864-7.168 8.96-7.168h42.752l-11.776 45.568c-12.8 34.176-33.92 51.2-63.232 51.2l23.296-89.6z m2.56-28.416c-4.48-5.504-6.144-12.16-5.12-19.968l13.568-102.912h49.664l-2.816 20.48-1.536 11.52-8.96 69.376c-0.384 2.56 0.128 4.736 1.536 6.656 1.536 1.92 3.456 2.816 5.888 2.816h33.28c2.432 0 4.608-0.896 6.656-2.816 1.92-1.92 2.944-4.096 3.328-6.656l10.496-80.896h-40.704l2.816-20.48h90.368l-13.568 102.912c-1.024 7.808-4.48 14.464-10.24 19.968-5.76 5.632-12.416 8.448-19.712 8.448h-97.536c-7.168 0-12.928-2.816-17.408-8.448z m127.36 23.552c1.408 1.536 2.176 3.456 2.176 5.888v88.576h-22.528c-7.552 0-13.824-2.816-19.072-8.448-5.248-5.632-7.936-12.544-8.064-20.736v-67.584h41.984c2.304 0 4.096 0.768 5.504 2.304z" fill="#FC7F2C" p-id="12385"></path><path d="M613.12 705.408l-158.592-0.768h-0.128c-2.176-0.896-87.424-37.376-126.72-37.376h-17.28a80.3968 80.3968 0 0 0-78.08 55.424c-12.288 41.344 11.136 84.736 52.352 97.152 1.024 0.256 2.048 0.64 3.072 0.896 49.024 12.416 137.216 34.432 177.664 41.984 62.08 11.648 195.84-15.744 210.432-20.224 15.872-4.864 110.976-36.352 112-36.736 8.576-2.176 15.872-7.808 20.224-15.488 5.76-10.112 5.76-22.528-0.128-32.64-3.072-5.504-7.68-9.984-13.44-12.8a33.152 33.152 0 0 0-25.216-1.664L619.008 788.48h-0.128l-160.896-0.384c-4.864 0.256-8.96-3.456-9.216-8.32-0.256-4.864 3.456-8.96 8.32-9.216H611.072c17.92 0.128 32.768-13.952 33.792-31.872a32.7296 32.7296 0 0 0-31.744-33.28" fill="#FEDFC5" p-id="12386"></path></svg>