<svg class="icon" viewBox="0 0 1024 1024" version="1.1" xmlns="http://www.w3.org/2000/svg" width="200" height="200">
    <path d="M790.1184 233.8816l-132.2496-117.1968a105.3184 105.3184 0 0 0-69.8368-26.4704h-25.9072c-1.2288-0.1536-2.4576-0.256-3.7376-0.256s-2.5088 0.1024-3.7376 0.256H313.088c-101.632 0-184.2688 82.688-184.2688 184.2688v428.0832c0 101.632 82.688 184.2688 184.2688 184.2688h97.9968c16.9472 0 30.72-13.7728 30.72-30.72s-13.7728-30.72-30.72-30.72H313.088c-67.7376 0-122.8288-55.0912-122.8288-122.8288V274.4832c0-67.7376 55.0912-122.8288 122.8288-122.8288h214.5792v98.5088c0 59.3408 48.2816 107.6224 107.6224 107.6224h128.8704V481.28c0 16.9472 13.7728 30.72 30.72 30.72s30.72-13.7728 30.72-30.72V312.6784a105.57952 105.57952 0 0 0-35.4816-78.7968z m-201.0112 16.2304V151.6544c10.3424 0.256 20.224 4.096 28.0064 10.9568l132.2496 117.1968c5.12 4.5568 9.0112 10.1888 11.52 16.4352h-125.5936c-25.4976 0.0512-46.1824-20.6848-46.1824-46.1312z"></path>
    <path d="M588.8512 429.2608H365.5168c-16.9472 0-30.72 13.7728-30.72 30.72s13.7728 30.72 30.72 30.72h223.3344c16.9472 0 30.72-13.7728 30.72-30.72s-13.7728-30.72-30.72-30.72zM531.456 589.6192H365.5168c-16.9472 0-30.72 13.7728-30.72 30.72s13.7728 30.72 30.72 30.72h165.9392c16.9472 0 30.72-13.7728 30.72-30.72s-13.7728-30.72-30.72-30.72z"></path>
    <path d="M536.832 929.1776c-17.0496 0-33.1264-7.936-43.5712-21.9648a54.2208 54.2208 0 0 1-4.9152-57.344l27.392-54.016c4.0448-7.9872 9.6256-14.9504 16.4864-20.6848l241.6128-203.8272c27.9552-23.2448 69.3248-19.456 92.4672 8.2944l23.1936 27.8528c23.1424 27.7504 19.3536 69.1712-8.3968 92.3136l-240.0768 202.5984a66.29376 66.29376 0 0 1-30.3104 14.2336l-63.8464 11.6736c-3.4304 0.5632-6.7584 0.8704-10.0352 0.8704z m279.0912-311.7056a3.9424 3.9424 0 0 0-2.6112 0.9728l-241.6128 203.8272c-0.5632 0.4608-0.9216 0.9216-1.1776 1.4336l-21.1456 41.6768 50.2272-9.1648a3.7888 3.7888 0 0 0 1.8944-0.8704l240.0768-202.5472c1.8944-1.5872 2.1504-4.1472 0.6656-5.888l-23.1936-27.8528a3.7888 3.7888 0 0 0-3.1232-1.5872z"></path>
</svg>