<svg t="1668599241435" class="icon" viewBox="0 0 1024 1024" version="1.1" xmlns="http://www.w3.org/2000/svg" p-id="27256" width="32" height="32"><path d="M743.2704 264.32l91.8784 53.0176v130.56l-156.5184 90.368-0.384-126.848-97.28-56.32zM404.9664 826.3936v-173.9008l103.7568 59.5456 102.912-59.3152-0.7936 173.0048-103.7056 59.5968-102.0928-58.88z m42.3168-472.704l-108.1088 61.9008v121.7024L179.2 444.0832v-126.6176l102.5792-59.264 165.6576 95.5136z m66.8928 38.7072l98.4576 56.8064-0.6144 127.4112-103.3728 59.6992-103.808-60.5952v-122.2656l109.3888-61.056z" fill="#0188FB" p-id="27257"></path><path d="M673.5872 224.128l-160.4096 91.8272L347.52 220.16 507.1616 128zM338.7136 788.1472L179.2 695.9872v-172.9536l159.744 91.8272v173.44z m496.4352-264.576v172.4928l-155.8272 89.856-0.4608-172.2368 156.16-90.2144z" fill="#0188FB" opacity=".5" p-id="27258"></path></svg>