<svg t="1668175429216" class="icon" viewBox="0 0 1152 1024" version="1.1" xmlns="http://www.w3.org/2000/svg" p-id="16653" width="200" height="200"><path d="M178.368 109.696c-48.384 0-63.104 2.944-78.208 11.264a60.864 60.864 0 0 0-25.28 26.112C66.816 162.688 64 177.92 64 227.968v595.456c0 50.048 2.816 65.28 10.88 80.832 5.952 11.52 14.208 20.032 25.28 26.176 15.104 8.32 29.824 11.264 78.208 11.264h795.264c48.384 0 63.104-2.944 78.208-11.264a60.864 60.864 0 0 0 25.28-26.176c8.064-15.552 10.88-30.784 10.88-80.832V227.968c0-50.048-2.816-65.28-10.88-80.896a60.864 60.864 0 0 0-25.28-26.112c-15.104-8.32-29.824-11.264-78.208-11.264H178.368z m6.208-64h782.848c64.192 0 87.424 6.848 110.912 19.712s41.856 31.744 54.4 55.808c12.608 24.064 19.264 48 19.264 113.792v581.312c0 65.92-6.656 89.728-19.2 113.792a132.544 132.544 0 0 1-54.464 55.872c-23.488 12.8-46.72 19.712-110.912 19.712H184.576c-64.192 0-87.424-6.848-110.912-19.712a132.544 132.544 0 0 1-54.4-55.872C6.656 906.048 0 882.176 0 816.32V235.008C0 169.152 6.656 145.28 19.2 121.216c12.608-24.064 30.976-42.88 54.464-55.808 23.488-12.864 46.72-19.712 110.912-19.712z m55.424 256a48 48 0 1 0 0 96h288a48 48 0 1 0 0-96h-288z m0 192a48 48 0 1 0 0 96h288a48 48 0 1 0 0-96h-288z m0 192a48 48 0 1 0 0 96h160a48 48 0 1 0 0-96h-160z m528-128a128 128 0 1 0 0-256 128 128 0 0 0 0 256z m-84.096 64c-23.168 0-31.552 1.664-40.448 5.184a57.344 57.344 0 0 0-22.656 16c-6.272 7.296-10.688 14.656-18.368 36.48l-33.536 95.232a48 48 0 0 0 45.248 64h323.008a48 48 0 0 0 45.248-64l-33.536-95.232c-7.68-21.824-12.16-29.184-18.368-36.48a57.344 57.344 0 0 0-22.656-16c-8.96-3.52-17.28-5.184-40.512-5.184h-183.424z" p-id="16654"></path></svg>