<svg t="1669208296793" class="icon" viewBox="0 0 1024 1024" version="1.1" xmlns="http://www.w3.org/2000/svg" p-id="37433" width="32" height="32"><path d="M831.211497 818.209006l-188.751049-215.131206a85.47989 85.47989 0 0 0-84.6619-26.993649l-15.541798 3.680952a35.378041 35.378041 0 0 1-40.899469-20.449735 407.767704 407.767704 0 0 1-26.789152-92.228302 26.789152 26.789152 0 0 1 20.449734-30.061109A85.275392 85.275392 0 0 0 553.708601 388.764584a86.911371 86.911371 0 0 0 6.748412-40.899469l-19.427247-251.531733A103.271159 103.271159 0 0 0 405.857021 5.127566L267.412319 58.296876A141.307665 141.307665 0 0 0 170.480578 178.745811C140.623966 454.408231 238.373697 764.426204 446.960987 971.173019a46.829892 46.829892 0 0 0 74.846028-13.905819l1.226984-2.249471a47.238886 47.238886 0 0 0-10.224867-53.782801C330.806496 719.845783 245.122109 450.113787 264.140362 209.011418A74.846028 74.846028 0 0 1 316.491682 143.367771L410.56046 104.717773a27.811639 27.811639 0 0 1 35.787035 24.335184l14.723809 189.160043a32.515078 32.515078 0 0 1-24.744179 34.151056l-31.901585 7.770899a49.692855 49.692855 0 0 0-37.218517 55.418781c16.97328 107.361106 40.899469 181.593641 99.590207 270.95898a49.28386 49.28386 0 0 0 59.099732 18.200264l43.14894-17.382274a32.31058 32.31058 0 0 1 36.809522 9.406878L742.459649 859.108475a27.607141 27.607141 0 0 1-11.656348 43.966929l-76.482007 26.993649a48.261373 48.261373 0 0 0-27.607141 66.461637 48.056876 48.056876 0 0 0 59.917721 24.539681l102.248672-36.809522A102.248672 102.248672 0 0 0 831.211497 818.209006z" fill="#111111" p-id="37434"></path><path d="M625.691666 68.72624a50.510844 50.510844 0 0 0 37.218517 44.989416 102.248672 102.248672 0 0 1 14.928306 193.24999 50.715341 50.715341 0 0 0-29.856613 50.510844 51.533331 51.533331 0 0 0 72.801055 42.33095A204.497344 204.497344 0 0 0 691.130816 15.556931a51.328833 51.328833 0 0 0-65.43915 53.169309z" fill="#00C569" p-id="37435"></path></svg>