<svg t="1667023212080" class="icon" viewBox="0 0 1024 1024" version="1.1" xmlns="http://www.w3.org/2000/svg" p-id="2713" width="32" height="32"><path d="M512 512m-448 0a448 448 0 1 0 896 0 448 448 0 1 0-896 0Z" fill="#F2FAFF" p-id="2714"></path><path d="M505.2 691.2c4.3-2 9.3-2 13.6 0l117.6 55.4c5.9 2.8 12.4 3.8 18.9 2.9 18.6-2.4 31.7-19.5 29.3-38.1l-15.8-120.9c-0.6-4.6 0.9-9.3 4-12.8l92.6-102.5c4.1-4.5 6.9-10.1 8.1-16.1 3.7-18.4-8.2-36.3-26.6-40l-127.3-25.6c-4.5-0.9-8.4-3.7-10.7-7.7l-67.5-116.7c-3-5.2-7.3-9.4-12.4-12.4-16.3-9.4-37.1-3.8-46.5 12.4L415 385.8c-2.3 4-6.2 6.8-10.7 7.7L277 419.1c-6 1.2-11.6 4-16.1 8.1-13.9 12.6-15 34.1-2.4 48l92.6 102.5c3.1 3.5 4.6 8.2 4 12.8l-15.8 120.9c-0.8 6.5 0.2 13 2.9 18.9 8 17 28.3 24.3 45.2 16.3l117.8-55.4z m-104 84.4c-33 15.5-72.3 1.4-87.8-31.6-5.4-11.4-7.4-24.2-5.7-36.7l14.9-113.5-87.7-97c-24.4-27-22.3-68.8 4.7-93.2 8.8-8 19.6-13.4 31.3-15.7L391 363.6l63.8-110.4c18.2-31.6 58.6-42.3 90.2-24.1 10 5.8 18.3 14.1 24.1 24.1L633 363.6l120.2 24.2c35.7 7.2 58.9 42 51.7 77.7-2.3 11.6-7.8 22.4-15.7 31.3l-87.7 97 14.9 113.5c4.7 36.1-20.7 69.3-56.9 74-12.5 1.6-25.3-0.3-36.7-5.7L512 723.4l-110.8 52.2z m157.6-324.2c-6.7 3.9-10.8 11.1-10.8 18.9 0 1.3 0.4 2.6 1.1 3.7 2.1 3.1 6.3 4 9.4 2l2-1.3c7.6-5 17.4-5 25 0l2 1.3c1.1 0.7 2.4 1.1 3.7 1.1 3.8 0 6.8-3 6.8-6.8 0-7.8-4.1-15-10.8-18.9l-1.7-1c-7.7-4.5-17.3-4.5-25 0l-1.7 1z m-121 0c-6.7 3.9-10.8 11.1-10.8 18.9 0 1.3 0.4 2.6 1.1 3.7 2.1 3.1 6.3 4 9.4 2l2-1.3c7.6-5 17.4-5 25 0l2 1.3c1.1 0.7 2.4 1.1 3.7 1.1 3.8 0 6.8-3 6.8-6.8 0-7.8-4.1-15-10.8-18.9l-1.7-1c-7.7-4.5-17.3-4.5-25 0l-1.7 1z m90.2 46.3c0 8.4-7.1 15.3-16 15.3s-16-6.9-16-15.3c0-6.6-5.4-12-12-12s-12 5.4-12 12c0 21.8 18 39.3 40 39.3s40-17.5 40-39.3c0-6.6-5.4-12-12-12s-12 5.3-12 12z" fill="#5AC1FD" p-id="2715"></path><path d="M403 511c-11.6 0-21-5.1-21-11.5s9.4-11.5 21-11.5 21 5.1 21 11.5-9.4 11.5-21 11.5z m218 0c-11.6 0-21-5.1-21-11.5s9.4-11.5 21-11.5 21 5.1 21 11.5-9.4 11.5-21 11.5z" fill="#5AC1FD" p-id="2716"></path></svg>