<svg t="1691473413093" class="icon" viewBox="0 0 1024 1024" version="1.1" xmlns="http://www.w3.org/2000/svg" p-id="4501" width="200" height="200"><path d="M943.37251556 399.72796275c-3.29067005-10.10780106-15.56913439-33.98625298-58.65876543-37.43758448l-181.82599112-14.57511393c-25.37063845-2.03543027-57.36191548-25.2804831-67.12065354-48.76363852l-70.05532558-168.42289665c-16.60014166-39.89836303-43.10118941-44.2061703-53.72911746-44.2061703-10.62214886 0-37.12319662 4.30780727-53.72333827 44.21194949L388.20977778 298.957405c-9.77607563 23.4889346-41.76272932 46.72820825-67.11487436 48.76479437l-181.83292613 14.57511393c-43.07691683 3.45595484-55.36231619 27.32862759-58.64720706 37.43642864s-7.37308897 36.64930314 25.44114455 64.75927703l138.53871181 118.67101687c19.31520452 16.56431068 31.53587697 54.16140078 25.63648114 78.90904268l-42.31984311 177.42456099c-7.2609727 30.45401284 0.55711379 48.6804182 8.39831704 58.61137608 9.0190019 11.42661192 22.41169383 17.71205757 37.70342715 17.71205757 12.78125376 0 26.51722949-4.42685855 40.82650075-13.17886194l155.67631803-95.07690103c10.2499691-6.26117305 25.75437658-9.98990561 41.48417241-9.9899056 15.73557503 0 31.23998251 3.73335591 41.47839322 9.9899056l155.69943479 95.07690103c14.29771287 8.75200338 28.02790941 13.17886194 40.80453982 13.17886194v-0.01155838h0.01733757c15.28017495 0 28.67171103-6.29122484 37.68493376-17.73055097 7.83657989-9.92980205 15.65928973-28.14464903 8.40294038-58.59288268l-41.90374152-175.64919422c-32.75644162 1.3199667-68.18055675 1.98804092-105.74066003 1.98804092-128.40085897 0-239.55083965-7.70943774-244.21926829-8.0296048a26.77844881 26.77844881 0 0 1-18.435612-9.22011767 26.82583817 26.82583817 0 0 1-6.52701572-19.56486547 26.76689044 26.76689044 0 0 1 14.27459612-21.890411c2.98206138-1.60314695 72.11502843-38.62000649 157.85969552-98.49124572l22.61743294-15.79452274-27.48813319-2.47927197c-34.68437897-3.13116444-74.28684754-4.72275302-117.701269-4.72275301-55.95410511 0-98.17107865 2.68154357-98.57331019 2.7104395a27.00383718 27.00383718 0 0 1-28.58964656-25.12213333 26.94951281 26.94951281 0 0 1 25.10941912-28.6185425c1.80541855-0.11789545 44.83956938-2.88843852 101.5808-2.88843852 62.80013206 0 151.43208183 3.42705891 217.0559255 19.73708529a26.76111125 26.76111125 0 0 1 16.58858328 12.2495684 26.80156557 26.80156557 0 0 1 3.05256748 20.3808869 27.01539556 27.01539556 0 0 1-9.58651824 14.75311295c-41.01721397 31.91614759-84.94482738 63.04979302-130.57845728 92.53868134l-27.03851232 17.46355246 32.16927606 1.05296817c41.57317192 1.35579767 81.87954568 2.03658611 119.77946525 2.03658611 39.87986963 0 77.17413023-0.76285291 111.11299386-2.27931203 4.70425961-10.65682398 11.06136719-20.13816099 18.4876247-26.50567111l138.52599759-118.66523767c32.81423351-28.10419471 28.7318146-54.64569679 25.45270294-64.74771866z" fill="#ffcd00" p-id="4502"></path></svg>