<svg class="icon" viewBox="0 0 1024 1024" xmlns="http://www.w3.org/2000/svg"  width="200" height="200">
    <path d="M818.176 894.976H206.848c-43.008 0-78.848-34.816-78.848-78.848V204.8c0-43.008 34.816-78.848 78.848-78.848h611.328c43.008 0 78.848 34.816 78.848 78.848v611.328c0 43.008-35.84 78.848-78.848 78.848zM206.848 186.368c-10.24 0-18.432 8.192-18.432 18.432v611.328c0 10.24 8.192 18.432 18.432 18.432h611.328c10.24 0 18.432-8.192 18.432-18.432V204.8c0-10.24-8.192-18.432-18.432-18.432H206.848z"></path>
    <path d="M701.44 715.776H323.584c-4.096 0-8.192-4.096-8.192-8.192V313.344c0-4.096 4.096-8.192 8.192-8.192h377.856c4.096 0 8.192 4.096 8.192 8.192v395.264c0 4.096-3.072 7.168-8.192 7.168z"></path>
    <path d="M631.808 643.072H393.216c-4.096 0-8.192-4.096-8.192-8.192V386.048c0-4.096 4.096-8.192 8.192-8.192h238.592c4.096 0 8.192 4.096 8.192 8.192V634.88c0 5.12-3.072 8.192-8.192 8.192zM963.584 415.744h-98.304c-16.384 0-30.72-13.312-30.72-30.72s13.312-30.72 30.72-30.72h98.304c16.384 0 30.72 13.312 30.72 30.72s-14.336 30.72-30.72 30.72zM963.584 540.672h-98.304c-16.384 0-30.72-13.312-30.72-30.72 0-16.384 13.312-30.72 30.72-30.72h98.304c16.384 0 30.72 13.312 30.72 30.72s-14.336 30.72-30.72 30.72zM963.584 665.6h-98.304c-16.384 0-30.72-13.312-30.72-30.72s13.312-30.72 30.72-30.72h98.304c16.384 0 30.72 13.312 30.72 30.72s-14.336 30.72-30.72 30.72zM632.832 999.424c-16.384 0-29.696-13.312-30.72-29.696v-102.4c0-16.384 13.312-30.72 29.696-30.72 16.384 0 29.696 13.312 30.72 29.696v102.4c0 16.384-13.312 30.72-29.696 30.72zM513.024 999.424c-16.384 0-30.72-13.312-30.72-29.696v-102.4c0-16.384 13.312-30.72 29.696-30.72 16.384 0 30.72 13.312 30.72 29.696v102.4c0 17.408-13.312 30.72-29.696 30.72zM393.216 1006.592c-16.384 0-30.72-13.312-30.72-29.696v-102.4c0-16.384 13.312-30.72 29.696-30.72 16.384 0 30.72 13.312 30.72 29.696v102.4c1.024 17.408-13.312 30.72-29.696 30.72z"></path>
    <path d="M632.832 177.152c-16.384 0-29.696-13.312-30.72-29.696v-102.4c0-16.384 13.312-30.72 29.696-30.72 16.384 0 29.696 13.312 30.72 29.696v102.4c0 17.408-13.312 30.72-29.696 30.72zM513.024 177.152c-16.384 0-30.72-13.312-30.72-29.696v-102.4c0-16.384 13.312-30.72 29.696-30.72 16.384 0 30.72 13.312 30.72 29.696v102.4c0 17.408-13.312 30.72-29.696 30.72zM393.216 185.344c-16.384 0-30.72-13.312-30.72-29.696v-102.4c0-16.384 13.312-30.72 29.696-30.72 16.384 0 30.72 13.312 30.72 29.696v102.4c1.024 16.384-13.312 30.72-29.696 30.72z"></path>
    <path d="M155.648 415.744H57.344c-16.384 0-30.72-13.312-30.72-30.72s13.312-30.72 30.72-30.72h98.304c16.384 0 30.72 13.312 30.72 30.72s-14.336 30.72-30.72 30.72zM155.648 540.672H57.344c-16.384 0-30.72-13.312-30.72-30.72 0-16.384 13.312-30.72 30.72-30.72h98.304c16.384 0 30.72 13.312 30.72 30.72s-14.336 30.72-30.72 30.72zM155.648 665.6H57.344c-16.384 0-30.72-13.312-30.72-30.72s13.312-30.72 30.72-30.72h98.304c16.384 0 30.72 13.312 30.72 30.72s-14.336 30.72-30.72 30.72z"></path>
</svg>