<svg t="1713613040947" class="icon" viewBox="0 0 1097 1024" version="1.1" xmlns="http://www.w3.org/2000/svg" p-id="12155" width="200" height="200"><path d="M475.428571 731.428571h146.285715v219.428572h-146.285715z" fill="#FF8E2B" p-id="12156"></path><path d="M408.393143 877.714286h316.928c52.845714 0 79.250286 24.356571 79.250286 73.033143v0.219428C804.571429 999.643429 778.166857 1024 725.321143 1024h-316.928C355.547429 1024 329.142857 999.643429 329.142857 950.966857v-0.219428C329.142857 902.070857 355.547429 877.714286 408.393143 877.714286z" fill="#FF8E2B" p-id="12157"></path><path d="M862.025143 146.285714h156.745143C1062.070857 146.285714 1097.142857 182.235429 1097.142857 226.633143v161.28C1097.142857 476.635429 1026.962286 548.571429 940.397714 548.571429h-78.372571V146.285714zM78.372571 146.285714h156.745143v402.285715H156.745143C70.180571 548.571429 0 476.635429 0 387.913143v-161.28C0 182.272 35.108571 146.285714 78.372571 146.285714z" fill="#FFC695" p-id="12158"></path><path d="M336.457143 0h460.8C882.102857 0 950.857143 68.681143 950.857143 153.344v231.241143C950.857143 596.333714 778.934857 768 566.857143 768S182.857143 596.333714 182.857143 384.585143V153.344A153.490286 153.490286 0 0 1 336.457143 0z" fill="#FF8E2B" p-id="12159"></path><path d="M583.387429 194.340571l0.073142 0.073143a38.729143 38.729143 0 0 1 0 55.405715l-113.005714 111.177142a40.228571 40.228571 0 0 1-56.429714 0l-0.073143-0.073142a38.729143 38.729143 0 0 1 0-55.405715l113.005714-111.177143a40.228571 40.228571 0 0 1 56.429715 0zM719.725714 351.451429l0.073143 0.073142a38.729143 38.729143 0 0 1 0 55.405715l-169.435428 166.729143a40.228571 40.228571 0 0 1-56.466286 0l-0.073143-0.073143a38.729143 38.729143 0 0 1 0-55.442286l169.435429-166.692571a40.228571 40.228571 0 0 1 56.466285 0z" fill="#FFFFFF" p-id="12160"></path></svg>