<svg class="icon" viewBox="0 0 1024 1024" version="1.1" xmlns="http://www.w3.org/2000/svg" width="32" height="32">
    <path d="M608 928c-229.76 0-416-186.24-416-416h-0.128c0-0.416 0.128-0.768 0.128-1.184a95.904 95.904 0 1 0-191.872-1.184c0 0.384-0.128 0.768-0.128 1.184l0.032 0.384c0 0.288 0.096 0.544 0.096 0.8H0c0 282.784 229.216 512 512 512 282.016 0 510.592-227.968 511.872-509.632C1022.592 743.072 836.928 928 608 928z"></path>
    <path d="M1023.872 512H1024c0-282.784-229.216-512-512-512C230.016 0 1.408 227.968 0.128 509.632 1.408 280.96 187.072 96 416 96c229.76 0 416 186.24 416 416h0.128c0 0.416-0.128 0.768-0.128 1.184a96 96 0 0 0 96 96 95.872 95.872 0 0 0 95.872-94.816c0-0.416 0.128-0.768 0.128-1.184l-0.032-0.384c0-0.288-0.096-0.544-0.096-0.8z"></path>
</svg>