<svg class="icon" viewBox="0 0 1024 1024" version="1.1" xmlns="http://www.w3.org/2000/svg" width="200" height="200">
    <path d="M492.904 467.536c-32.736 0-59.274 26.536-59.274 59.272 0 32.734 26.538 59.272 59.274 59.272 32.734 0 59.272-26.538 59.272-59.272-0.001-32.736-26.539-59.272-59.272-59.272z m432.523 339.207a60.078 60.078 0 0 0-5.814-13.957l-63.29-110.416c20.459-47.73 31.8-100.293 31.811-155.503 0.049-218.256-176.835-395.148-395.079-395.101-218.245 0.049-395.205 177.017-395.252 395.273-0.047 218.252 176.837 395.144 395.081 395.096 86.438-0.019 166.392-27.8 231.451-74.898l127.314 33.094a62.58 62.58 0 0 0 10.266 1.76 59.93 59.93 0 0 0 6.375 0.346c15.569 0 29.729-6.012 40.306-15.83 8.088-7.274 14.239-16.765 17.305-27.863a56.79 56.79 0 0 0-0.474-32.001zM740.118 651.359c-12.261 18.327-13.905 42.825-2.196 63.253l9.688 16.901-20.735-5.39c-20.524-5.335-41.4 0.225-56.138 13.009-0.001-0.079-0.007-0.157-0.008-0.236-48.065 40.341-110.039 64.648-177.698 64.648-152.759 0-276.593-123.834-276.593-276.593s123.834-276.593 276.591-276.593c152.759 0 276.595 123.836 276.595 276.593 0 44.75-10.64 87.009-29.508 124.408h0.002z"></path>
    <path d="M334.972 466.427c32.736 0 59.274 26.536 59.274 59.272 0 32.734-26.538 59.272-59.274 59.272-32.734 0-59.272-26.538-59.272-59.272 0-32.736 26.538-59.272 59.272-59.272zM651.089 466.427c32.734 0 59.272 26.536 59.272 59.272 0 32.734-26.538 59.272-59.272 59.272-32.736 0-59.274-26.538-59.274-59.272 0-32.736 26.538-59.272 59.274-59.272zM868.724 763.894c32.734 0 59.272 26.536 59.272 59.272 0 32.734-26.538 59.272-59.272 59.272-32.736 0-59.274-26.538-59.274-59.272 0-32.736 26.538-59.272 59.274-59.272z"></path>
</svg>