<svg class="icon" viewBox="0 0 1024 1024" version="1.1" xmlns="http://www.w3.org/2000/svg" width="200" height="200">
    <path d="M638.691207 121.874847a454.622495 454.622495 0 0 1 0 802.761554C853.438037 911.862577 1024 737.321881 1024 523.517382S853.438037 134.648671 638.691207 121.874847z" fill="#BBE1FF"></path>
    <path d="M411.065849 129.413497C188.466258 129.413497 8.690389 305.838855 8.690389 523.517382S188.466258 917.202454 411.065849 917.202454 813.546012 740.777096 813.546012 523.517382 633.141922 129.413497 411.065849 129.413497z m165.95501 462.998773a32.353374 32.353374 0 0 1 33.505112 35.599182c0 23.034765-13.506748 36.541513-33.505112 35.599182l-110.776278-0.523517v60.099795c-0.523517 32.143967-19.57955 48.163599-53.60818 48.163599s-53.60818-15.496115-55.178732-48.163599v-58.633947H245.739059c-20.940695-1.465849-34.02863-14.030266-34.02863-38.530879s12.983231-32.039264 34.02863-33.609816h111.71861v-35.599182H245.739059a32.876892 32.876892 0 0 1-34.02863-35.075665c0-22.092434 12.983231-32.143967 34.02863-33.609816h83.762781L251.288344 353.897751c-15.077301-25.547648-17.590184-54.655215 5.025766-69.627812s51.095297-6.491616 66.067894 18.008998l87.741513 157.055214 96.746013-158.41636c13.506748-23.453579 36.017996-39.054397 65.649079-24.500613 25.024131 12.564417 23.034765 41.881391 9.004499 68.161963L492.106339 487.708793h85.22863c19.998364 1.465849 33.505112 8.480982 33.505113 33.609816s-14.030266 34.552147-34.02863 36.017996l-110.252761 0.523518v34.552147z" fill="#43ADFF"></path>
</svg>