<svg class="icon" viewBox="0 0 1024 1024" version="1.1" xmlns="http://www.w3.org/2000/svg" width="200" height="200">
    <path d="M594.503551 343.289554l54.30072 23.463388c2.927679 1.269923 5.979178 1.870604 8.979512 1.870604 8.786107 0 17.129122-5.116531 20.852934-13.68979 4.972245-11.501962-0.353041-24.857131-11.838629-29.815049l-54.318116-23.480784c-11.44875-5.028527-24.839735 0.335644-29.816073 11.837606C577.69063 324.960093 583.001589 338.315262 594.503551 343.289554M716.160331 576.72514c-12.525268 0-22.688745 10.17985-22.688745 22.722514l0 52.465932c0 10.655687-15.59314 23.147186-23.602557 23.147186l-45.215808 0c-5.929036 0-14.731516-1.906419-20.007683-7.268544-3.861958-3.8814-5.661953-9.544377-5.572926-17.253966 0.511653-36.376489 0.38681-159.270447 0.38681-164.473959 0-12.542664-10.160407-22.670326-22.667256-22.670326l-0.036839 0c-12.542664 0.01842-22.686698 10.162454-22.668279 22.686698 0 1.305739 0.12382 127.797641-0.387833 163.839509-0.334621 25.139563 9.933233 40.946574 18.629289 49.732681 18.488073 18.771529 42.744523 20.782326 52.306296 20.782326l45.234227 0c31.242562 0 68.980048-30.555923 68.980048-68.521606l0-52.483328C738.848053 586.90499 728.686622 576.72514 716.160331 576.72514M708.610378 448.187649c12.505825 0 22.687722-10.161431 22.687722-22.722514 0-12.507872-10.181897-22.650883-22.687722-22.650883L543.042505 402.814252c3.192715-54.03773 0.899486-93.502557 0.635473-97.876168-0.777713-12.490475-11.20418-21.98164-24.081465-21.204951-12.490475 0.811482-21.999037 11.57257-21.222347 24.063045 0.086981 1.059122 2.39863 40.752146-0.952698 95.019097l-76.212776 0c-12.526291 0-22.687722 10.143011-22.687722 22.650883 0 12.561084 10.143011 22.722514 22.687722 22.722514l72.259744 0c-9.473769 83.340103-33.731242 182.327582-93.695962 233.081523-9.561773 8.080026-10.761088 22.406313-2.663666 31.968086 4.498454 5.29254 10.883885 8.043187 17.340947 8.043187 5.169743 0 10.390651-1.765203 14.625092-5.363148 72.348772-61.216223 100.029204-175.235047 110.172215-267.730671L708.610378 448.187649zM407.23647 309.62892c1.798972-12.384052-6.756891-23.833825-19.12457-25.650193-12.43624-1.799996-23.902386 6.739495-25.75457 19.070334-0.12382 0.864694-14.291494 88.684832-105.533568 210.625068-7.497765 10.020214-5.451152 24.257473 4.587482 31.754215 4.073782 3.052522 8.838296 4.516874 13.56597 4.516874 6.897084 0 13.724583-3.140527 18.188244-9.085936 7.92039-10.619872 15.260565-20.958334 22.158672-31.05018l0 195.488323c0 12.543687 10.160407 22.687722 22.668279 22.687722 12.544711 0 22.723537-10.144034 22.723537-22.687722L360.715947 434.463066C399.42148 360.331695 406.830217 312.417429 407.23647 309.62892zM511.004835 909.517619c-219.444944 0-397.980153-178.533163-397.980153-397.996526S291.55989 113.524566 511.004835 113.524566c219.48076 0 398.013923 178.534186 398.013923 397.99755C909.018757 730.948641 730.466152 909.517619 511.004835 909.517619M511.004835 68.149123c-244.479107 0-443.37197 198.875466-443.37197 443.37197 0 244.479107 198.892863 443.35355 443.37197 443.35355 244.497527 0 443.388343-198.874443 443.388343-443.35355C954.393177 267.024589 755.502361 68.149123 511.004835 68.149123"></path>
</svg>