<svg class="icon" viewBox="0 0 1024 1024" xmlns="http://www.w3.org/2000/svg" width="200" height="200">
    <path d="M665.6 512H358.4a34.133333 34.133333 0 0 1-34.133333-34.133333v-34.133334h375.466666v34.133334a34.133333 34.133333 0 0 1-34.133333 34.133333z"></path>
    <path d="M484.522667 77.192533l-307.2 134.997334A68.266667 68.266667 0 0 0 136.533333 274.653867V486.229333c0 129.5872 57.9584 245.384533 160.085334 325.188267l176.0256 124.2112a68.266667 68.266667 0 0 0 78.711466 0l174.6944-123.221333C829.508267 731.5968 887.466667 615.799467 887.466667 486.229333V274.670933a68.266667 68.266667 0 0 0-40.789334-62.498133l-307.2-134.997333a68.266667 68.266667 0 0 0-54.954666 0zM204.8 274.670933l307.2-134.997333 307.2 134.997333V486.229333c0 108.305067-48.0768 204.373333-133.853867 271.394134L512 879.837867l-174.6944-123.221334C252.8768 690.551467 204.8 594.500267 204.8 486.1952V274.670933z"></path>
    <path d="M512 290.133333a34.133333 34.133333 0 0 1 34.048 31.573334L546.133333 324.266667v307.2a34.133333 34.133333 0 0 1-68.181333 2.56L477.866667 631.466667V324.266667a34.133333 34.133333 0 0 1 34.133333-34.133334z"></path>
</svg>