<svg t="1668948171137" class="icon" viewBox="0 0 1024 1024" version="1.1" xmlns="http://www.w3.org/2000/svg" p-id="5714" width="32" height="32"><path d="M170.666667 512c0 66.090667 18.773333 127.658667 51.2 179.882667a42.666667 42.666667 0 0 1-72.533334 45.013333A424.874667 424.874667 0 0 1 85.333333 512C85.333333 276.352 276.352 85.333333 512 85.333333s426.666667 191.018667 426.666667 426.666667-191.018667 426.666667-426.666667 426.666667a424.874667 424.874667 0 0 1-234.666667-70.314667 42.666667 42.666667 0 1 1 46.933334-71.210667A341.333333 341.333333 0 1 0 170.666667 512z m341.333333 170.666667a42.666667 42.666667 0 1 0 0 85.333333 42.666667 42.666667 0 0 0 0-85.333333z m0-384a64 64 0 0 0-62.933333 75.648L469.333333 597.333333c0 21.333333 19.114667 42.666667 42.666667 42.666667s42.666667-21.333333 42.666667-42.666667l20.266666-223.018666A64.085333 64.085333 0 0 0 512 298.666667z" p-id="5715"></path></svg>