<svg class="icon" viewBox="0 0 1024 1024" version="1.1" xmlns="http://www.w3.org/2000/svg" width="200" height="200">
    <path d="M888.394836 68.142265h-89.565249v70.935677a57.065858 57.065858 0 0 1-112.954574 0V68.142265H337.798867v70.935677a57.065858 57.065858 0 0 1-112.954574 0V68.142265h-89.565248A103.179166 103.179166 0 0 0 25.6 163.030248v765.859647A103.281527 103.281527 0 0 0 135.227864 1023.777878h753.218152a103.127986 103.127986 0 0 0 109.627864-94.887983V163.030248a103.179166 103.179166 0 0 0-109.679044-94.887983z m38.180386 846.212469a35.109577 35.109577 0 0 1-38.180386 30.708086H135.074324a35.007217 35.007217 0 0 1-38.180386-30.708086V336.889191H926.370501zM282.166052 169.069505a24.361748 24.361748 0 0 0 26.971935-20.472057V20.647093c0-11.413172-12.027333-20.472057-26.971935-20.472057s-27.074295 9.161245-27.074295 20.472057v127.950355a24.566468 24.566468 0 0 0 27.074295 20.472057z m459.137055 0c14.944601 0 27.074295-9.161245 27.074295-20.472057V20.647093c0-11.413172-12.129694-20.472057-27.074295-20.472057a24.361748 24.361748 0 0 0-26.971935 20.472057v127.950355c0 11.361992 12.078514 20.472057 26.971935 20.472057z"></path>
    <path d="M411.702992 795.770345l-132.044767-132.044767a36.542621 36.542621 0 0 1 51.640764-51.640763l132.044766 132.044767a36.542621 36.542621 0 1 1-51.640763 51.691943z"></path>
    <path d="M743.043232 520.1141L467.591707 795.514444a36.542621 36.542621 0 0 1-51.640763-51.640763l275.451525-275.451525a36.542621 36.542621 0 0 1 51.640763 51.691944z"></path>
</svg>