<svg class="icon" viewBox="0 0 1024 1024" version="1.1" xmlns="http://www.w3.org/2000/svg" p-id="10736" width="200" height="200">
    <path d="M184.32 699.733333h645.12l117.76 153.6c42.666667 54.613333 20.48 100.693333-49.493333 100.693334H122.88c-69.973333 0-92.16-46.08-51.2-100.693334l112.64-153.6z" fill="#DAE9FF" p-id="10737"></path>
    <path d="M817.493333 194.56h-34.133333v-11.946667c0-15.36-8.533333-46.08-44.373333-46.08-11.946667 0-40.96-1.706667-47.786667 3.413334-15.36 10.24 0 32.426667 0 42.666666v11.946667H387.413333v-11.946667c0-15.36-8.533333-46.08-46.08-46.08-13.653333 0-35.84-3.413333-44.373333 3.413334-11.946667 10.24-3.413333 32.426667-3.413333 42.666666v11.946667h-35.84c-47.786667 0-87.04 39.253333-87.04 87.04v467.626667c0 47.786667 39.253333 87.04 87.04 87.04h558.08c47.786667 0 87.04-39.253333 87.04-87.04V281.6c1.706667-47.786667-37.546667-87.04-85.333334-87.04z" fill="#DAE9FF" p-id="10738"></path>
    <path d="M781.653333 194.56h-34.133333v-11.946667c0-15.36-8.533333-46.08-44.373333-46.08s-47.786667 30.72-47.786667 46.08v11.946667H351.573333v-11.946667c0-15.36-8.533333-46.08-44.373333-46.08s-47.786667 30.72-47.786667 46.08v11.946667h-35.84c-47.786667 0-87.04 39.253333-87.04 87.04v467.626667c0 47.786667 39.253333 87.04 87.04 87.04h558.08c47.786667 0 87.04-39.253333 87.04-87.04V281.6c0-47.786667-39.253333-87.04-87.04-87.04z" fill="#3889FF" p-id="10739"></path>
    <path d="M226.986667 503.466667c1.706667-23.893333 23.893333-44.373333 49.493333-44.373334h59.733333c23.893333 0 44.373333 20.48 44.373334 44.373334 0 25.6-20.48 44.373333-44.373334 44.373333h-68.266666c-25.6 1.706667-44.373333-18.773333-40.96-44.373333zM226.986667 665.6c1.706667-23.893333 23.893333-44.373333 49.493333-44.373333h59.733333c23.893333 0 44.373333 20.48 44.373334 44.373333 0 25.6-20.48 44.373333-44.373334 44.373333h-68.266666c-25.6 0-44.373333-18.773333-40.96-44.373333zM440.32 503.466667c1.706667-23.893333 23.893333-44.373333 49.493333-44.373334h59.733334c23.893333 0 44.373333 20.48 44.373333 44.373334 0 25.6-20.48 44.373333-44.373333 44.373333h-68.266667c-25.6 1.706667-42.666667-18.773333-40.96-44.373333zM440.32 665.6c1.706667-23.893333 23.893333-44.373333 49.493333-44.373333h59.733334c23.893333 0 44.373333 20.48 44.373333 44.373333 0 25.6-20.48 44.373333-44.373333 44.373333h-68.266667c-25.6 0-42.666667-18.773333-40.96-44.373333zM672.426667 503.466667c1.706667-23.893333 23.893333-44.373333 49.493333-44.373334h59.733333c23.893333 0 44.373333 20.48 44.373334 44.373334 0 25.6-20.48 44.373333-44.373334 44.373333h-68.266666c-25.6 1.706667-42.666667-18.773333-40.96-44.373333zM672.426667 665.6c1.706667-23.893333 23.893333-44.373333 49.493333-44.373333h59.733333c23.893333 0 44.373333 20.48 44.373334 44.373333 0 25.6-20.48 44.373333-44.373334 44.373333h-68.266666c-25.6 0-42.666667-18.773333-40.96-44.373333z" fill="#DAE9FF" p-id="10740"></path>
    <path d="M244.053333 459.093333h71.68c20.48 0 35.84 15.36 35.84 35.84 0 20.48-15.36 35.84-35.84 35.84h-71.68c-20.48 0-35.84-15.36-35.84-35.84 0-18.773333 15.36-35.84 35.84-35.84zM244.053333 621.226667h71.68c20.48 0 35.84 15.36 35.84 35.84 0 20.48-15.36 35.84-35.84 35.84h-71.68c-20.48 0-35.84-15.36-35.84-35.84 0-20.48 15.36-35.84 35.84-35.84zM457.386667 459.093333H529.066667c20.48 0 35.84 15.36 35.84 35.84 0 20.48-15.36 35.84-35.84 35.84h-71.68c-20.48 0-35.84-15.36-35.84-35.84 0-18.773333 17.066667-35.84 35.84-35.84zM457.386667 621.226667H529.066667c20.48 0 35.84 15.36 35.84 35.84 0 20.48-15.36 35.84-35.84 35.84h-71.68c-20.48 0-35.84-15.36-35.84-35.84 0-20.48 17.066667-35.84 35.84-35.84zM691.2 459.093333h71.68c20.48 0 35.84 15.36 35.84 35.84 0 20.48-15.36 35.84-35.84 35.84h-71.68c-20.48 0-35.84-15.36-35.84-35.84-1.706667-18.773333 15.36-35.84 35.84-35.84zM691.2 621.226667h71.68c20.48 0 35.84 15.36 35.84 35.84 0 20.48-15.36 35.84-35.84 35.84h-71.68c-20.48 0-35.84-15.36-35.84-35.84-1.706667-20.48 15.36-35.84 35.84-35.84zM252.586667 279.893333H733.866667c25.6 0 44.373333 20.48 44.373333 44.373334 0 25.6-20.48 44.373333-44.373333 44.373333H252.586667c-25.6 0-44.373333-20.48-44.373334-44.373333 0-23.893333 20.48-44.373333 44.373334-44.373334z" fill="#FFFFFF" p-id="10741"></path>
    <path d="M228.693333 283.306667c-11.946667 5.12-20.48 18.773333-20.48 32.426666v17.066667c0 20.48 15.36 35.84 35.84 35.84h498.346667c15.36 0 27.306667-8.533333 32.426667-20.48-5.12 1.706667-10.24 3.413333-15.36 3.413333H262.826667c-20.48 0-35.84-15.36-35.84-35.84v-17.066666c-1.706667-5.12 0-10.24 1.706666-15.36z" fill="#DAE9FF" p-id="10742"></path>
    <path d="M769.706667 935.253333c112.64 0 204.8-90.453333 204.8-203.093333S884.053333 529.066667 769.706667 529.066667 580.266667 619.52 580.266667 732.16s76.8 203.093333 189.44 203.093333z" fill="#FFD6C2" p-id="10743"></path>
    <path d="M529.066667 728.746667a201.386667 199.68 0 1 0 402.773333 0 201.386667 199.68 0 1 0-402.773333 0Z" fill="#FB560A" p-id="10744"></path>
    <path d="M687.786667 715.093333c-13.653333-15.36-40.96-17.066667-51.2-6.826666s-5.12 42.666667 5.12 52.906666l59.733333 59.733334c8.533333 10.24 35.84 11.946667 49.493333-1.706667l105.813334-90.453333c10.24-8.533333 29.013333-27.306667 11.946666-49.493334-20.48-22.186667-40.96-8.533333-51.2 0l-75.093333 87.04-54.613333-51.2z" fill="#FFD6C2" p-id="10745"></path>
</svg>