<svg class="icon" viewBox="0 0 1024 1024" version="1.1" xmlns="http://www.w3.org/2000/svg" width="200" height="200">
    <path d="M896 128H746.67V85.33c0-23.57-19.11-42.67-42.67-42.67H320c-23.57 0-42.67 19.11-42.67 42.67v42.66H128c-23.57 0-42.67 19.11-42.67 42.67v768c0 23.57 19.11 42.67 42.67 42.67h768c23.56 0 42.67-19.1 42.67-42.66v-768c0-23.57-19.11-42.67-42.67-42.67z m-533.33 0h298.67v42.26c0 0.13-0.01 0.26-0.01 0.4s0.01 0.26 0.01 0.4v42.27H362.67V128z m490.67 768H170.67V213.33h106.66V256c0 23.57 19.11 42.67 42.67 42.67h384c23.56 0 42.67-19.11 42.67-42.67v-42.67h106.67V896z"></path>
    <path d="M652.5 417.83L469.32 600.99l-97.83-97.82c-16.64-16.67-43.68-16.67-60.33 0-16.67 16.65-16.67 43.67 0 60.33l128 128c8.33 8.33 19.25 12.5 30.17 12.5 10.92 0 21.85-4.17 30.17-12.5l213.33-213.34c16.67-16.65 16.67-43.67 0-60.33-16.64-16.67-43.68-16.67-60.33 0z"></path>
</svg>