<svg t="1672392934194" class="icon" viewBox="0 0 1024 1024" version="1.1" xmlns="http://www.w3.org/2000/svg" p-id="19732" width="32" height="32"><path d="M512 877.887224c-49.759287 0-97.203856-9.636474-142.331659-28.907377-45.124733-19.269879-84.028788-45.245484-116.715235-77.932953-32.68747-32.686447-58.664098-71.590502-77.932953-116.715235-19.269879-45.128827-28.907377-92.573395-28.907377-142.331659s9.636474-97.203856 28.907377-142.331659c19.269879-45.124733 45.245484-84.031858 77.932953-116.715235 32.686447-32.68747 71.590502-58.664098 116.715235-77.932953 45.128827-19.269879 92.573395-28.907377 142.331659-28.907377s97.203856 9.636474 142.331659 28.907377c45.124733 19.269879 84.032882 45.245484 116.715235 77.932953 32.68747 32.686447 58.664098 71.590502 77.932953 116.715235 19.269879 45.128827 28.907377 92.573395 28.907377 142.331659s-9.636474 97.203856-28.907377 142.331659c-19.269879 45.124733-45.245484 84.028788-77.932953 116.715235-32.686447 32.68747-71.590502 58.664098-116.715235 77.932953C609.202832 868.25075 561.758264 877.887224 512 877.887224L512 877.887224 512 877.887224zM512 237.58407c-49.759287 0-95.741551 12.19474-137.940652 36.588313s-75.492368 57.687864-99.885941 99.885941c-24.393573 42.199101-36.588313 88.181365-36.588313 137.940652s12.19474 95.741551 36.588313 137.940652 57.687864 75.492368 99.885941 99.885941 88.181365 36.588313 137.940652 36.588313 95.741551-12.19474 137.940652-36.588313c42.199101-24.393573 75.492368-57.687864 99.885941-99.885941 24.393573-42.199101 36.588313-88.181365 36.588313-137.940652s-12.19474-95.741551-36.588313-137.940652c-24.393573-42.199101-57.687864-75.492368-99.885941-99.885941C607.741551 249.779833 561.758264 237.58407 512 237.58407L512 237.58407 512 237.58407zM649.571239 558.099944 512 558.099944c-12.684904 0-23.418362-4.51278-32.197306-13.534248-8.783037-9.026584-13.175067-19.881816-13.175067-32.565696L466.627626 375.156332c0-12.68081 4.39203-23.536043 13.175067-32.561603 8.778944-9.025561 19.512403-13.538341 32.197306-13.538341s23.539112 4.51278 32.565696 13.538341c9.021467 9.025561 13.534248 19.880793 13.534248 32.561603l0 91.472318 91.472318 0c12.198833 0 22.807449 4.39203 31.833009 13.175067 9.025561 8.778944 13.538341 19.512403 13.538341 32.197306s-4.51278 23.539112-13.538341 32.565696C672.379711 553.587164 661.770072 558.099944 649.571239 558.099944L649.571239 558.099944 649.571239 558.099944zM649.571239 558.099944" p-id="19733"></path></svg>