<svg class="icon" viewBox="0 0 1024 1024" version="1.1" xmlns="http://www.w3.org/2000/svg" width="20" height="20">
    <path d="M833.74 225.15H680.43v-52.66c0-28.09-22.23-52.66-51.49-52.66h-204.8c-28.09 0-51.49 23.41-51.49 52.66v52.66H220.5c-56.17 0-101.81 46.81-101.81 104.16v131.07h818.03V329.31c0-58.51-46.81-104.16-102.98-104.16z m-409.61 0v-26.91c0-14.04 11.7-25.75 25.75-25.75h153.31c14.04 0 25.75 11.7 25.75 25.75l1.17 26.91H424.13zM578.61 537.62c0-9.36-2.34-17.56-7.02-25.75h-87.77c-4.68 7.02-7.02 16.38-7.02 25.75-1.17 29.26 22.24 52.66 50.33 52.66 28.08 0 51.48-23.4 51.48-52.66z"></path>
    <path d="M628.93 537.62c0 57.34-45.64 104.16-101.81 104.16-56.18 0-101.82-46.81-101.82-104.16 0-9.36 1.17-17.56 3.51-25.75h-311.3v287.89c0 57.34 45.64 104.15 101.82 104.15h614.4c56.17 0 101.82-46.81 101.82-104.15V511.87H625.42c2.35 8.2 3.51 17.56 3.51 25.75z"></path>
</svg>