<svg class="icon" viewBox="0 0 1024 1024" xmlns="http://www.w3.org/2000/svg" width="200" height="200">
    <path d="M847.030961 65.290005 176.966992 65.290005c-61.683874 0-111.677499 49.992601-111.677499 111.677499l0 670.063969c0 61.684898 49.992601 111.678522 111.677499 111.678522l670.063969 0c61.683874 0 111.678522-49.992601 111.678522-111.678522L958.709483 176.967504C958.709483 115.282606 908.715859 65.290005 847.030961 65.290005zM434.99365 228.704842l363.875404 0 0 73.131601L641.614521 301.836443l-10.69662 57.060577 151.34187 0 0 271.715425-79.710436 0L702.549336 430.247045 518.857686 430.247045l0 204.527187-79.675644 0L439.182043 358.89702l102.272291 0 10.679223-57.060577L434.99365 301.836443 434.99365 228.704842zM373.188003 683.528632c0 24.167422-4.223185 43.293015-12.651135 57.365522-8.42795 14.07353-19.839861 22.903639-34.323737 26.462698-14.44806 3.576455-46.991244 5.339612-97.508801 5.339612-2.791579-23.774473-7.328919-49.539276-13.644765-77.284177 18.216897 1.989307 36.016285 2.966565 53.465702 2.966565 15.879666 0 23.783683-8.699126 23.783683-26.148543L292.308951 316.694849l-76.079746 0 0-81.445964 209.865775 0 0 81.445964-52.906977 0L373.188003 683.528632zM758.475066 792.921088c-39.663348-32.893154-89.289606-70.654176-148.933007-113.248274-26.786063 44.583404-82.361823 83.122139-166.81733 115.620297-12.267395-23.382547-28.14706-49.13814-47.550992-77.283154 42.787502-11.691273 78.435397-26.960025 106.879216-45.778626 28.442796-18.819624 47.254234-44.627407 56.501852-77.432557 9.195429-32.806173 13.820774-75.364455 13.820774-127.687124l78.486562 0c0 58.063417-4.674463 106.328677-13.95892 144.770198 55.874565 35.282574 113.24725 74.221422 172.087357 116.825752L758.475066 792.921088z"></path>
</svg>