<svg class="icon" viewBox="0 0 1024 1024" version="1.1" xmlns="http://www.w3.org/2000/svg" width="200" height="200">
    <path d="M810.438503 379.664884l-71.187166-12.777183C737.426025 180.705882 542.117647 14.602496 532.991087 7.301248c-12.777184-10.951872-32.855615-10.951872-47.45811 0-9.12656 7.301248-204.434938 175.229947-206.26025 359.586453l-67.536542 10.951871c-18.253119 3.650624-31.030303 18.253119-31.030303 36.506239v189.832442c0 10.951872 5.475936 21.903743 12.777184 27.379679 7.301248 5.475936 18.253119 9.12656 29.204991 7.301248l135.073084-23.729055c40.156863 47.458111 93.090909 74.83779 149.675579 74.837789 56.58467 0 109.518717-25.554367 149.675579-74.837789l136.898396 23.729055c10.951872 1.825312 21.903743-1.825312 29.204991-7.301248 9.12656-7.301248 12.777184-16.427807 12.777184-27.379679V414.345811c3.650624-16.427807-9.12656-31.030303-25.554367-34.680927zM766.631016 564.02139l-114.994652-20.078431c-14.602496-1.825312-27.379679 3.650624-36.506239 14.602496-27.379679 40.156863-65.71123 62.060606-105.868093 62.060606-40.156863 0-76.663102-21.903743-105.868093-62.060606-7.301248-9.12656-18.253119-14.602496-29.204991-14.602496h-5.475936L255.543672 564.02139v-116.819964l69.361854-12.777184c18.253119-3.650624 31.030303-20.078431 31.030303-38.33155v-27.37968c0-118.645276 107.693405-237.290553 156.976827-284.748663 49.283422 47.458111 156.976827 166.103387 156.976827 284.748663v27.37968c-1.825312 18.253119 12.777184 34.680927 31.030303 38.33155l71.187166 12.777184v116.819964H766.631016zM620.606061 766.631016H401.568627c-20.078431 0-36.506239 16.427807-36.506238 36.506239v109.518716c0 14.602496 9.12656 29.204991 23.729055 34.680927 14.602496 5.475936 31.030303 1.825312 40.156863-9.126559l16.427807-18.25312 32.855615 80.313726c5.475936 14.602496 18.253119 23.729055 34.680927 23.729055 16.427807 0 27.379679-9.12656 34.680927-23.729055l32.855615-80.313726 16.427807 18.25312c10.951872 10.951872 25.554367 14.602496 40.156863 9.126559 14.602496-5.475936 23.729055-18.253119 23.729055-34.680927v-109.518716c-3.650624-20.078431-20.078431-36.506239-40.156862-36.506239z m-109.518717 122.2959L491.008913 839.643494H529.340463l-18.253119 49.283422z"></path>
</svg>