<svg class="icon" viewBox="0 0 1024 1024" version="1.1" xmlns="http://www.w3.org/2000/svg" width="200" height="200">
    <path d="M576 631.466667V725.333333h170.666667c59.733333-8.533333 106.666667-64 106.666666-128 0-72.533333-55.466667-128-128-128-17.066667 0-29.866667 4.266667-42.666666 8.533334V469.333333c0-93.866667-76.8-170.666667-170.666667-170.666666s-170.666667 76.8-170.666667 170.666666c0 17.066667 4.266667 29.866667 4.266667 46.933334-8.533333-4.266667-17.066667-4.266667-25.6-4.266667C260.266667 512 213.333333 558.933333 213.333333 618.666667S260.266667 725.333333 320 725.333333h170.666667v-93.866666l-46.933334 46.933333L384 618.666667l149.333333-149.333334 149.333334 149.333334-59.733334 59.733333-46.933333-46.933333z m0 93.866666v85.333334h-85.333333v-85.333334h-42.666667v85.333334h-128C213.333333 810.666667 128 725.333333 128 618.666667c0-85.333333 55.466667-157.866667 128-183.466667C273.066667 311.466667 379.733333 213.333333 512 213.333333c110.933333 0 209.066667 72.533333 243.2 170.666667 102.4 12.8 183.466667 102.4 183.466667 213.333333s-85.333333 200.533333-192 213.333334h-128v-85.333334h-42.666667z"></path>
</svg>