<svg class="icon" viewBox="0 0 1024 1024" xmlns="http://www.w3.org/2000/svg" width="200" height="200">
    <path d="M947.204199 511.999097c0 240.355006-194.851 435.206006-435.200587 435.206006-240.358619 0-435.209618-194.851-435.209618-435.206006 0-240.345975 194.851-435.196975 435.209618-435.196975 240.349588 0 435.200587 194.851 435.200587 435.196975zM512.003612 0C229.231423 0 0.000903 229.235939 0.000903 511.999097 0.000903 794.771286 229.231423 1024 512.003612 1024c282.764964 0 511.993678-229.228714 511.993679-511.999097C1023.999097 229.235939 794.770383 0 512.003612 0z"></path>
    <path d="M452.290102 253.955815c-3.43723 19.458368-5.980382 43.154119-7.638488 71.090866-5.806985 63.282593-11.623002 126.561575-17.428181 189.840556h47.658823c-1.788154 17.829161-3.505866 42.314229-5.154942 73.446172l-9.921546 136.342236c0 39.872224-11.005276 62.569138-33.024858 68.088935-22.019583 5.519797-53.205713 10.821042-93.56381 15.918184-5.884653-26.679621-13.122161-50.183913-21.707107-70.493009 40.515237 0 65.016561-0.330538 73.487716-0.998838 8.478379-0.6683 14.086681-7.161648 16.837548-19.467399 2.499803-49.134501 5.008638-98.256359 7.515666-147.383635h-148.017618a4989.233554 4989.233554 0 0 0 3.731643-111.831881c0.841697-37.605423 1.258933-74.849603 1.258933-111.710864h65.536751c-3.411943 22.330252-5.937033 47.770808-7.577077 76.307219-1.641851 28.529186-2.465485 59.122877-2.465485 91.781074h47.745521c5.727512-69.33703 11.465861-138.666836 17.195179-207.996642h-60.06211c-26.435781 0-54.912587 0.841697-85.439449 2.52509v-60.538951c29.804375 3.386656 58.282987 5.07908 85.439449 5.079081l125.593442 0.001806zM783.477919 514.804151c-8.906452 14.285365-15.788136 29.961516-20.657696 47.023034-4.860528 17.054294-12.732019 44.413052-23.607246 82.063631-10.875228 37.652385-19.536035 64.904576-25.986034 81.751155h27.468937c12.098037 0 33.050145-1.692425 62.849102-5.079081v60.52992c-27.210648-1.676169-48.164563-2.517865-62.849102-2.517865H547.49215c-29.560536 0-53.872207 0.841697-72.931401 2.517865v-60.52992a558.554321 558.554321 0 0 0 75.449266 5.079081h106.797956c12.394256-34.065239 22.774581-70.344899 31.140975-108.837175a442837.45006 442837.45006 0 0 0 26.627241-122.03339c19.115187 6.959351 42.081227 13.635127 68.901732 20.032745z"></path>
    <path d="M655.525558 244.921121c26.177492 48.05619 53.117208 83.494154 80.831791 106.312084 27.703745 22.816124 61.823171 41.877124 102.338408 57.177582-15.892897 17.195179-28.921135 36.879324-39.108195 59.054241-28.843468-14.258271-50.099021-30.142137-63.768466-47.65521v42.65741c-27.219679-1.674362-60.73041-2.517865-100.523161-2.517866-39.82165 0-74.990487 0.843503-105.515542 2.517866v-40.143157c-0.606889 11.064881-12.152223 28.615884-34.62336 52.656623-18.416181-15.916378-36.989503-29.508155-55.694679-40.782557 27.660396-21.636665 48.466201-41.468919 62.388517-59.496764a417.725445 417.725445 0 0 0 37.041883-56.875945c10.770468-19.89186 19.895472-38.143675 27.375014-54.730159 7.474123-16.595515 14.198666-37.217086 20.170017-61.875551a4162.360386 4162.360386 0 0 0 81.646395 19.788906c-4.183197 7.969026-8.375425 15.945277-12.558622 23.912497z m62.411997 159.568371c-18.600415-7.889553-36.469313-22.964234-53.595856-45.218625-17.12293-22.254391-31.843593-48.915949-44.158375-79.963001-8.689707 23.798706-18.557066 45.462464-29.589435 64.989468-11.037788 19.519779-25.350245 39.586842-42.944598 60.190351l170.288264 0.001807zM545.731089 507.330028a4707.559544 4707.559544 0 0 1 23.068994 87.82546 3826.136839 3826.136839 0 0 1 21.474106 89.622645c-18.66002 2.20539-37.433832 6.719125-56.335886 13.514111-6.130298-36.252567-11.942702-64.601131-17.453468-85.03305-5.503541-20.430112-13.60984-49.817251-24.329733-88.181285 16.794199-6.57824 34.655872-12.49721 53.575987-17.747881zM399.597355 612.688429c-1.788154 18.017007-3.679263 36.937123-5.676938 56.771184-28.762188 5.76183-50.982261 10.29182-66.656605 13.600809-15.674345 3.296345-42.736883 10.057012-81.203872 20.267553a6301.321438 6301.321438 0 0 0-19.875604-67.25627c27.398495-2.075343 53.733128-4.800923 78.989451-8.174934 25.258128-3.3704 56.729641-8.438642 94.423568-15.208342zM652.886676 566.947808c3.359562 21.750456 7.586108 51.547606 12.672413 89.396869-17.955596 3.948389-35.923836 7.887746-53.888462 11.839748-7.734218-40.975822-13.281108-71.569514-16.638865-91.800943-3.359562-20.229622-7.542759-43.517169-12.551397-69.851802 19.033907-4.347563 38.893255-8.261633 59.576238-11.760274l10.830073 72.176402z"></path>
</svg>