<svg class="icon" viewBox="0 0 1024 1024" version="1.1" xmlns="http://www.w3.org/2000/svg" width="200" height="200">
    <path d="M974.57493333 345.42933333c-0.54613333-2.18453333-1.6384-4.36906667-2.73066666-6.5536-2.18453333-4.36906667-4.36906667-9.28426667-6.00746667-14.19946666l-0.54613333-0.54613334c-3.82293333-9.28426667-7.64586667-18.56853333-13.65333334-28.39893333-15.29173333-27.8528-61.71306667-74.27413333-140.9024-75.3664-40.96 0.54613333-97.75786667 12.01493333-133.80266666 66.62826667-2.18453333 2.73066667-3.82293333 5.46133333-4.9152 8.192L508.7232 639.7952l-159.47093333-344.064c-10.92266667-24.02986667-39.86773333-34.4064-63.35146667-22.9376-24.02986667 10.92266667-34.4064 39.3216-23.48373333 63.35146667l167.1168 359.90186666 0.54613333 0.54613334c21.84533333 40.41386667 49.152 61.16693333 82.46613333 61.16693333 31.67573333-1.09226667 57.89013333-22.39146667 76.45866667-63.35146667L757.21386667 339.968c0-0.54613333 0.54613333-0.54613333 0.54613333-1.09226667 4.36906667-7.09973333 15.29173333-23.48373333 52.97493333-23.48373333h0.54613334c38.77546667 0.54613333 55.7056 22.39146667 57.89013333 25.66826667 0.54613333 1.6384 1.6384 3.2768 2.73066667 4.36906666 1.6384 2.18453333 3.82293333 7.64586667 6.00746666 13.1072 2.18453333 5.46133333 4.9152 12.01493333 8.192 18.56853334 14.7456 45.32906667 22.39146667 90.112 22.39146667 133.25653333 0 107.58826667-37.6832 198.79253333-114.14186667 279.07413333C712.97706667 867.5328 621.22666667 905.216 513.6384 905.216c-110.86506667 0-202.61546667-37.6832-279.62026667-115.23413333-79.18933333-75.91253333-116.87253333-167.66293333-116.87253333-278.528s37.6832-202.61546667 115.78026667-280.71253334c58.9824-62.2592 136.53333333-100.48853333 223.91466666-110.86506666 42.05226667-3.2768 58.9824-3.2768 107.04213334 0 5.46133333 0.54613333 55.7056 7.64586667 97.21173333 22.9376 12.01493333 4.36906667 25.12213333 3.82293333 36.59093333-1.6384 11.4688-5.46133333 20.75306667-14.7456 24.576-26.76053334l0.54613334-2.18453333v-0.54613333c3.82293333-11.4688 2.73066667-23.48373333-2.18453334-34.4064-5.46133333-11.4688-14.7456-20.20693333-26.76053333-24.576C642.52586667 34.13333333 580.26666667 24.30293333 569.89013333 24.30293333c-52.97493333-3.82293333-74.82026667-3.82293333-122.88 0C336.6912 37.95626667 238.93333333 86.016 164.6592 164.11306667 67.9936 260.23253333 21.57226667 373.82826667 21.57226667 511.45386667s46.96746667 251.22133333 143.08693333 347.3408C259.6864 953.82186667 376.55893333 1001.8816 512 1001.8816c131.61813333 0 248.49066667-48.05973333 348.43306667-143.63306667 94.48106667-98.85013333 142.5408-215.17653333 142.5408-346.79466666-0.54613333-54.0672-9.8304-110.31893333-28.39893334-166.02453334z m-19.11466666-17.47626666z"></path>
</svg>