<svg class="icon" viewBox="0 0 1024 1024" version="1.1" xmlns="http://www.w3.org/2000/svg">
    <path d="M759.466667 672l-85.333334-70.4c19.2-32 29.866667-68.266667 29.866667-108.8 0-117.333333-96-213.333333-213.333333-213.333333s-213.333333 96-213.333334 213.333333 96 213.333333 213.333334 213.333333c46.933333 0 91.733333-14.933333 125.866666-42.666666l87.466667 72.533333c8.533333 8.533333 23.466667 6.4 29.866667-2.133333l27.733333-32c8.533333-8.533333 6.4-21.333333-2.133333-29.866667zM490.666667 622.933333c-70.4 0-128-57.6-128-128s57.6-128 128-128 128 57.6 128 128-57.6 128-128 128zM213.333333 362.666667v-128c0-10.666667 8.533333-21.333333 21.333334-21.333334h128c10.666667 0 21.333333-8.533333 21.333333-21.333333V149.333333c0-10.666667-8.533333-21.333333-21.333333-21.333333h-149.333334c-46.933333 0-85.333333 38.4-85.333333 85.333333v149.333334c0 10.666667 8.533333 21.333333 21.333333 21.333333h42.666667c12.8 0 21.333333-8.533333 21.333333-21.333333zM661.333333 213.333333h128c10.666667 0 21.333333 8.533333 21.333334 21.333334v128c0 10.666667 8.533333 21.333333 21.333333 21.333333h42.666667c10.666667 0 21.333333-8.533333 21.333333-21.333333v-149.333334c0-46.933333-38.4-85.333333-85.333333-85.333333h-149.333334c-10.666667 0-21.333333 8.533333-21.333333 21.333333v42.666667c0 12.8 8.533333 21.333333 21.333333 21.333333z"></path>
    <path d="M810.666667 661.333333v128c0 10.666667-8.533333 21.333333-21.333334 21.333334h-128c-10.666667 0-21.333333 8.533333-21.333333 21.333333v42.666667c0 10.666667 8.533333 21.333333 21.333333 21.333333h149.333334c46.933333 0 85.333333-38.4 85.333333-85.333333v-149.333334c0-10.666667-8.533333-21.333333-21.333333-21.333333h-42.666667c-12.8 0-21.333333 8.533333-21.333333 21.333333zM362.666667 810.666667h-128c-10.666667 0-21.333333-8.533333-21.333334-21.333334v-128c0-10.666667-8.533333-21.333333-21.333333-21.333333H149.333333c-10.666667 0-21.333333 8.533333-21.333333 21.333333v149.333334c0 46.933333 38.4 85.333333 85.333333 85.333333h149.333334c10.666667 0 21.333333-8.533333 21.333333-21.333333v-42.666667c0-12.8-8.533333-21.333333-21.333333-21.333333z"></path>
</svg>