<svg t="1691473819302" class="icon" viewBox="0 0 1024 1024" version="1.1" xmlns="http://www.w3.org/2000/svg" p-id="20840" width="200" height="200"><path d="M52.224 711.430919l24.354595-85.517838a302.744216 302.744216 0 0 1-49.428757-165.611243c0-176.543135 154.015135-320.179892 343.289081-320.179892 138.516757 0 261.95027 77.076757 315.558054 194.310919l2.048 0.083027 1.992649-0.083027c4.428108 0 8.745514 0.442811 13.11827 0.63654 5.12 0.19373 10.24 0.276757 15.304649 0.691892 5.009297 0.470486 9.907892 1.300757 14.861837 1.937298 4.843243 0.691892 9.741838 1.21773 14.502054 2.103351 5.452108 1.024 10.765838 2.407784 16.107244 3.70854 4.040649 0.968649 8.136649 1.771243 12.121946 2.905946 6.254703 1.771243 12.315676 3.957622 18.404324 6.088649 2.850595 1.024 5.811892 1.881946 8.634811 2.988973 7.112649 2.739892 13.976216 5.894919 20.784432 9.132973 1.660541 0.802595 3.376432 1.466811 5.009297 2.297081 7.99827 3.957622 15.719784 8.302703 23.247568 12.924541l1.162378 0.664216c63.737081 39.520865 110.204541 101.431351 126.394811 173.69254l0.138379 0.525838c1.798919 8.108973 3.099676 16.384 4.123675 24.714379 0.110703 0.996324 0.359784 1.964973 0.498162 2.961297a261.673514 261.673514 0 0 1-39.797621 169.430486l19.926486 69.964109c3.597838 12.454054 0.110703 25.821405-9.02227 34.954378-9.132973 9.132973-22.472649 12.592432-34.871351 9.049946l-73.423568-21.033514a308.860541 308.860541 0 0 1-190.796108 40.544865c-2.490811-0.276757-4.981622-0.719568-7.472432-1.107027-8.773189-1.107027-17.463351-2.573838-26.125838-4.428108l-6.863568-1.66054a312.679784 312.679784 0 0 1-60.471351-21.420973l-0.913297-0.415136a298.620541 298.620541 0 0 1-56.624433-35.618594c-0.940973-0.747243-1.85427-1.549838-2.767567-2.352433-7.195676-5.894919-14.086919-12.09427-20.646055-18.598054l-5.203027-5.396756c-5.811892-6.088649-11.374703-12.454054-16.605405-19.096217-0.996324-1.162378-2.103351-2.214054-3.044324-3.404108-90.222703 20.037189-186.368 4.677189-264.219676-42.011675l-89.392432 25.6a35.535568 35.535568 0 0 1-43.893622-43.976649z m825.039568 13.11827a191.792432 191.792432 0 0 0 37.69427-113.747027c0-113.165838-100.905514-205.242811-224.920216-205.242811-7.99827 0-15.913514 0.470486-23.718054 1.162379-112.916757 10.876541-201.202162 98.248649-201.202163 204.108108a190.214919 190.214919 0 0 0 29.696 101.459027c4.787892 7.666162 10.156973 14.944865 15.913514 21.863784l1.300757 1.605189c12.177297 14.391351 26.208865 27.177514 41.707243 37.943351 7.417081 5.147676 15.110919 9.907892 23.109189 14.197622l0.774919 0.415135a237.678703 237.678703 0 0 0 51.974919 20.009513l4.455784 1.051676c7.278703 1.715892 14.695784 3.044324 22.195892 4.151351 2.131027 0.276757 4.206703 0.608865 6.337729 0.857946a237.484973 237.484973 0 0 0 159.605622-37.777297c8.662486-5.784216 19.428324-7.472432 29.419243-4.594162l27.122162 7.749189-6.946594-24.437621a35.701622 35.701622 0 0 1 5.479784-30.775352zM370.438919 211.276108c-150.112865 0-272.245622 111.699027-272.245622 249.02573 0 49.456432 15.830486 97.28 45.803244 138.24 6.476108 8.856216 8.496432 20.258595 5.479783 30.803027l-11.402378 40.019027 43.20173-12.343351c10.04627-2.905946 20.756757-1.190054 29.419243 4.566486 58.395676 38.884324 131.348757 54.244324 201.811027 44.281081a258.518486 258.518486 0 0 1-18.376649-95.03827c0-126.948324 92.187676-233.859459 217.254054-266.184649-46.384432-81.145081-138.323027-133.369081-240.944432-133.369081zM275.732757 401.020541a35.64627 35.64627 0 0 0 0-71.181838 35.563243 35.563243 0 1 0 0 71.181838z m189.412324 0a35.64627 35.64627 0 0 0 0-71.181838 35.563243 35.563243 0 1 0 0 71.181838z m130.214054 118.59027a35.64627 35.64627 0 0 0 0 71.181838c19.64973 0 35.535568-15.968865 35.535568-35.618595s-15.913514-35.590919-35.535568-35.563243z m189.384649 0c-19.622054 0-35.507892 15.941189-35.507892 35.590919a35.563243 35.563243 0 1 0 35.507892-35.590919z" fill="#3fcf77" p-id="20841"></path></svg>